<svg version="1.1" id="Layer_1" xmlns="http://www.w3.org/2000/svg" xmlns:xlink="http://www.w3.org/1999/xlink" x="0px" y="0px"
	 width="256px" height="256px" viewBox="0 0 256 256" enable-background="new 0 0 256 256" xml:space="preserve">
<path fill="#6E4B1A" d="M256,182.5v27H0v-27H256z"/>
<path fill="none" stroke="#523713" stroke-width="3" stroke-linejoin="round" stroke-miterlimit="10" d="M0,182.5h256"/>
<path fill="none" stroke="#523713" stroke-width="3" stroke-linejoin="round" stroke-miterlimit="10" d="M0,209.5h256"/>
<path fill="#6E4B1A" d="M256,46.5v27H0v-27H256z"/>
<path fill="none" stroke="#523713" stroke-width="3" stroke-linejoin="round" stroke-miterlimit="10" d="M0,46.5h256"/>
<path fill="none" stroke="#523713" stroke-width="3" stroke-linejoin="round" stroke-miterlimit="10" d="M0,73.5h256"/>
<path fill="#6E4B1A" stroke="#523713" stroke-width="3" stroke-linecap="round" stroke-linejoin="round" stroke-miterlimit="10" d="
	M21.52,15.97l27-0.49l4.17,227.97l-27,0.49C25.69,243.94,21.52,15.97,21.52,15.97z"/>
<path fill="#6E4B1A" stroke="#523713" stroke-width="3" stroke-linecap="round" stroke-linejoin="round" stroke-miterlimit="10" d="
	M75.6,14.34l26.96,1.48L90.04,243.48L63.08,242L75.6,14.34z"/>
<path fill="#6E4B1A" stroke="#523713" stroke-width="3" stroke-linecap="round" stroke-linejoin="round" stroke-miterlimit="10" d="
	M119.3,16.33l26.98-1.07l9.02,227.83l-26.98,1.07C128.32,244.16,119.3,16.33,119.3,16.33z"/>
<path fill="#6E4B1A" stroke="#523713" stroke-width="3" stroke-linecap="round" stroke-linejoin="round" stroke-miterlimit="10" d="
	M171.79,16.16l26.97,1.28l-10.84,227.75l-26.97-1.28C160.95,243.91,171.79,16.16,171.79,16.16z"/>
<path fill="#6E4B1A" stroke="#523713" stroke-width="3" stroke-linecap="round" stroke-linejoin="round" stroke-miterlimit="10" d="
	M209.37,13.15l26.99-0.8l6.74,227.9l-26.99,0.8C216.11,241.05,209.37,13.15,209.37,13.15z"/>
</svg>
