<svg version="1.1" id="Layer_1" xmlns="http://www.w3.org/2000/svg" xmlns:xlink="http://www.w3.org/1999/xlink" x="0px" y="0px"
	 width="256px" height="256px" viewBox="0 0 256 256" enable-background="new 0 0 256 256" xml:space="preserve">
<polygon opacity="0.1" points="130,0 140.5,0 140.5,115.5 256,115.5 256,126 130,126 "/>
<rect x="128" y="128" fill="#999999" width="128" height="128"/>
<rect fill="#999999" width="128" height="256"/>
<rect x="125.5" fill="#888888" width="5" height="125.5"/>
<polyline fill="#777777" points="125.5,0 125.5,23 101.5,23 101.5,0 "/>
<polyline fill="none" stroke="#666666" stroke-width="5" stroke-linejoin="round" stroke-miterlimit="10" points="125.5,0 125.5,23 
	101.5,23 101.5,0 "/>
<path fill="#888888" d="M39.91,36.05c-0.93,1.37-2.8,1.72-4.17,0.8l-5.79-3.93c-1.37-0.93-1.72-2.8-0.8-4.17l3.93-5.79
	c0.93-1.37,2.8-1.72,4.17-0.8l5.79,3.93c1.37,0.93,1.72,2.8,0.8,4.17L39.91,36.05z"/>
<path fill="#888888" d="M88.68,78.95c-0.2,1.64-1.7,2.81-3.34,2.61l-6.95-0.85c-1.64-0.2-2.81-1.7-2.61-3.34l0.85-6.95
	c0.2-1.64,1.7-2.81,3.34-2.61l6.95,0.85c1.64,0.2,2.81,1.7,2.61,3.34L88.68,78.95z"/>
<path fill="#888888" d="M36.97,140.62c0.59,1.54-0.18,3.28-1.72,3.88l-6.53,2.52c-1.54,0.59-3.28-0.18-3.88-1.72l-2.52-6.53
	c-0.59-1.54,0.18-3.28,1.72-3.88l6.53-2.52c1.54-0.59,3.28,0.18,3.88,1.72L36.97,140.62z"/>
<path fill="#888888" d="M90.36,188.04c-1.37,0.92-3.24,0.55-4.16-0.83l-3.89-5.82c-0.92-1.37-0.55-3.24,0.83-4.16l5.82-3.89
	c1.37-0.92,3.24-0.55,4.16,0.83l3.89,5.82c0.92,1.37,0.55,3.24-0.83,4.16L90.36,188.04z"/>
<path fill="#888888" d="M70.85,130.29c-1.61-0.36-2.64-1.95-2.29-3.57l1.49-6.84c0.36-1.61,1.95-2.64,3.57-2.29l6.84,1.49
	c1.61,0.36,2.64,1.95,2.29,3.57l-1.49,6.84c-0.36,1.61-1.95,2.64-3.57,2.29L70.85,130.29z"/>
<path fill="#888888" d="M40.77,226.11c-1.17,1.17-3.07,1.17-4.24,0l-4.95-4.95c-1.17-1.17-1.17-3.07,0-4.24l4.95-4.95
	c1.17-1.17,3.07-1.17,4.24,0l4.95,4.95c1.17,1.17,1.17,3.07,0,4.24L40.77,226.11z"/>
<rect x="125.5" y="125.5" fill="#888888" width="130.5" height="5"/>
<polygon fill="#777777" points="101.5,105 125.5,105 125.5,132.5 148.5,132.5 148.5,156.5 101.5,156.5 "/>
<polygon fill="none" stroke="#666666" stroke-width="5" stroke-linejoin="round" stroke-miterlimit="10" points="101.5,103 
	125.5,103 125.5,130.5 148.5,130.5 148.5,154.5 101.5,154.5 "/>
<polyline fill="#777777" points="256,154.5 233,154.5 233,130.5 256,130.5 "/>
<polyline fill="none" stroke="#666666" stroke-width="5" stroke-linejoin="round" stroke-miterlimit="10" points="256,154.5 
	233,154.5 233,130.5 256,130.5 "/>
<path fill="#888888" d="M152.2,177.13c-1.1-1.23-0.99-3.13,0.25-4.23l5.23-4.65c1.23-1.1,3.13-0.99,4.23,0.25l4.65,5.23
	c1.1,1.23,0.99,3.13-0.25,4.23l-5.23,4.65c-1.23,1.1-3.13,0.99-4.23-0.25L152.2,177.13z"/>
<path fill="#888888" d="M114.65,220.04c1.1-1.23,3-1.34,4.24-0.23l5.21,4.67c1.23,1.1,1.34,3,0.23,4.24l-4.67,5.21
	c-1.1,1.23-3,1.34-4.24,0.23l-5.21-4.67c-1.23-1.1-1.34-3-0.23-4.24L114.65,220.04z"/>
<path fill="#888888" d="M232.32,213.42c1.57,0.51,2.43,2.21,1.92,3.78l-2.17,6.65c-0.51,1.57-2.21,2.43-3.78,1.92l-6.65-2.17
	c-1.57-0.51-2.43-2.21-1.92-3.78l2.17-6.65c0.51-1.57,2.21-2.43,3.78-1.92L232.32,213.42z"/>
<path fill="#888888" d="M189.34,226.4c-0.2,1.64-1.71,2.81-3.36,2.6l-6.94-0.88c-1.64-0.2-2.81-1.71-2.6-3.36l0.88-6.94
	c0.2-1.64,1.71-2.81,3.36-2.6l6.94,0.88c1.64,0.2,2.81,1.71,2.6,3.36L189.34,226.4z"/>
<path fill="#777777" stroke="#666666" stroke-width="5" stroke-linejoin="round" stroke-miterlimit="10" d="M-107.78,162.77"/>
</svg>
