<svg version="1.1" id="Layer_1" xmlns="http://www.w3.org/2000/svg" xmlns:xlink="http://www.w3.org/1999/xlink" x="0px" y="0px"
	 width="256px" height="256px" viewBox="0 0 256 256" enable-background="new 0 0 256 256" xml:space="preserve">
<rect fill="#999999" width="256" height="256"/>
<path fill="#888888" d="M39.91,36.05c-0.93,1.37-2.8,1.72-4.17,0.8l-5.79-3.93c-1.37-0.93-1.72-2.8-0.8-4.17l3.93-5.79
	c0.93-1.37,2.8-1.72,4.17-0.8l5.79,3.93c1.37,0.93,1.72,2.8,0.8,4.17L39.91,36.05z"/>
<path fill="#888888" d="M117.61,52.69c-0.2,1.64-1.7,2.81-3.34,2.61l-6.95-0.85c-1.64-0.2-2.81-1.7-2.61-3.34l0.85-6.95
	c0.2-1.64,1.7-2.81,3.34-2.61l6.95,0.85c1.64,0.2,2.81,1.7,2.61,3.34L117.61,52.69z"/>
<path fill="#888888" d="M36.97,140.62c0.59,1.54-0.18,3.28-1.72,3.88l-6.53,2.52c-1.54,0.59-3.28-0.18-3.88-1.72l-2.52-6.53
	c-0.59-1.54,0.18-3.28,1.72-3.88l6.53-2.52c1.54-0.59,3.28,0.18,3.88,1.72L36.97,140.62z"/>
<path fill="#888888" d="M90.36,188.04c-1.37,0.92-3.24,0.55-4.16-0.83l-3.89-5.82c-0.92-1.37-0.55-3.24,0.83-4.16l5.82-3.89
	c1.37-0.92,3.24-0.55,4.16,0.83l3.89,5.82c0.92,1.37,0.55,3.24-0.83,4.16C96.18,184.15,90.36,188.04,90.36,188.04z"/>
<path fill="#888888" d="M68.42,107.54c-1.61-0.36-2.64-1.95-2.29-3.57l1.49-6.84c0.36-1.61,1.95-2.64,3.57-2.29l6.84,1.49
	c1.61,0.36,2.64,1.95,2.29,3.57l-1.49,6.84c-0.36,1.61-1.95,2.64-3.57,2.29L68.42,107.54L68.42,107.54z"/>
<path fill="#888888" d="M40.77,226.11c-1.17,1.17-3.07,1.17-4.24,0l-4.95-4.95c-1.17-1.17-1.17-3.07,0-4.24l4.95-4.95
	c1.17-1.17,3.07-1.17,4.24,0l4.95,4.95c1.17,1.17,1.17,3.07,0,4.24C45.72,221.16,40.77,226.11,40.77,226.11z"/>
<path fill="#888888" d="M157.97,34.21c-1.6,0.39-3.23-0.58-3.64-2.18l-1.7-6.79c-0.39-1.6,0.58-3.23,2.18-3.64l6.79-1.7
	c1.6-0.39,3.23,0.58,3.64,2.18l1.7,6.79c0.39,1.6-0.58,3.23-2.18,3.64L157.97,34.21L157.97,34.21z"/>
<path fill="#888888" d="M163.21,83.11c-1.42-0.84-1.91-2.67-1.07-4.1l3.53-6.04c0.84-1.42,2.67-1.91,4.1-1.07l6.04,3.53
	c1.42,0.84,1.91,2.67,1.07,4.1l-3.53,6.04c-0.84,1.42-2.67,1.91-4.1,1.07L163.21,83.11L163.21,83.11z"/>
<path fill="#888888" d="M219.5,35.65c-0.41-1.6,0.53-3.24,2.13-3.67l6.77-1.8c1.6-0.41,3.24,0.53,3.67,2.13l1.8,6.77
	c0.41,1.6-0.53,3.24-2.13,3.67l-6.77,1.8c-1.6,0.41-3.24-0.53-3.67-2.13L219.5,35.65L219.5,35.65z"/>
<path fill="#888888" d="M126.95,126.98c0.78-1.45,2.59-2.02,4.06-1.24l6.18,3.28c1.45,0.78,2.02,2.59,1.24,4.06l-3.28,6.18
	c-0.78,1.45-2.59,2.02-4.06,1.24l-6.18-3.28c-1.45-0.78-2.02-2.59-1.24-4.06L126.95,126.98L126.95,126.98z"/>
<path fill="#888888" d="M164.41,189.58c1.09-1.24,2.97-1.39,4.23-0.31l5.3,4.58c1.24,1.09,1.39,2.97,0.31,4.23l-4.58,5.3
	c-1.09,1.24-2.97,1.39-4.23,0.31l-5.3-4.58c-1.24-1.09-1.39-2.97-0.31-4.23L164.41,189.58L164.41,189.58z"/>
<path fill="#888888" d="M223.96,111.38c1.64,0.16,2.85,1.62,2.7,3.27l-0.66,6.97c-0.16,1.64-1.62,2.85-3.27,2.7l-6.97-0.66
	c-1.64-0.16-2.85-1.62-2.7-3.27l0.66-6.97c0.16-1.64,1.62-2.85,3.27-2.7L223.96,111.38L223.96,111.38z"/>
<path fill="#888888" d="M223.04,206.21c0.63,1.52-0.07,3.28-1.6,3.93l-6.45,2.72c-1.52,0.63-3.28-0.07-3.93-1.6l-2.72-6.45
	c-0.63-1.52,0.07-3.28,1.6-3.93l6.45-2.72c1.52-0.63,3.28,0.07,3.93,1.6L223.04,206.21L223.04,206.21z"/>
<path fill="#888888" d="M122.22,230.74c1.27,1.05,1.47,2.93,0.43,4.22l-4.42,5.42c-1.05,1.27-2.93,1.47-4.22,0.43l-5.42-4.42
	c-1.27-1.05-1.47-2.93-0.43-4.22l4.42-5.42c1.05-1.27,2.93-1.47,4.22-0.43L122.22,230.74L122.22,230.74z"/>
</svg>
