<svg xmlns="http://www.w3.org/2000/svg" xml:space="preserve" viewBox="0 0 256 256">
	<path fill="#666" d="M0 0h256v256H0z"/>
	<path fill="#606060" d="M25.42 8.99 0 10.96v26.08l27.43-2.13z"/>
	<path fill="#606060" d="m228.57 13.09 2.01 25.92L256 37.04V10.96z"/>
	<path fill="#606060" d="M27.64 88.79 0 86.07v26.13l25.1 2.46z"/>
	<path fill="#606060" d="m230.9 83.61-2.54 25.88L256 112.2V86.07z"/>
	<path fill="#606060" d="m26.25 173.63-26.25.5v26.01l26.74-.51z"/>
	<path fill="#606060" d="m229.26 174.65.49 25.99 26.25-.5v-26.01z"/>
	<path fill="#606060" d="m50.085 10.373 52.952 2.28-1.118 25.976-52.952-2.279z"/>
	<path fill="#606060" d="m142.213 15.944 52.84-4.096 2.01 25.922-52.84 4.096z"/>
	<path fill="#606060" d="m51.21 89.94 52.841-4.096 2.01 25.922-52.84 4.096z"/>
	<path fill="#606060" d="m143.21 87.944 52.84-4.097 2.01 25.922-52.84 4.097z"/>
	<path fill="#606060" d="m54.723 170.727 52.953 2.28-1.118 25.976-52.953-2.28z"/>
	<path fill="#606060" d="m146.725 173.728 52.953 2.28-1.118 25.976-52.953-2.28z"/>
	<path fill="#606060" d="m19.43 223.436 52.91-3.117 1.528 25.956-52.91 3.117z"/>
	<path fill="#606060" d="m104.535 217.32 52.746 5.177-2.54 25.875-52.746-5.178z"/>
	<path fill="#606060" d="M194.14 223.85h53v26h-53z"/>
	<path fill="#606060" d="m107.568 132.592 52.841-4.097 2.01 25.922-52.841 4.097z"/>
	<path fill="#606060" d="M195.14 126.85h53v26h-53z"/>
	<path fill="#606060" d="m22.363 126.86 52.894 3.328-1.632 25.948-52.894-3.329z"/>
	<path fill="#606060" d="m18.443 51.247 52.984 1.208-.592 25.992L17.85 77.24z"/>
	<path fill="#606060" d="m103.571 53.592 52.841-4.096 2.01 25.922-52.84 4.096z"/>
	<path fill="#606060" d="m188.436 47.245 52.985 1.208-.593 25.992-52.984-1.208z"/>
  </svg>
