<svg xmlns="http://www.w3.org/2000/svg" xml:space="preserve" id="Layer_1" x="0" y="0" version="1.1" viewBox="0 0 256 256">
<path fill="#e0d1af" d="M0 0v126.9c23.6 0 54.2-20.8 95.9-6.3 31.2 10.9 49.3 6.2 79.2.7 39-7.1 54 6.7 80.9 6.7V0H0z"/>
<path fill="#d7c9a8" d="M19.8 81.8 36.3 96l14.1-16.4L34 65.4 19.8 81.8"/>
<path fill="#d7c9a8" d="M111.4 55 93.6 67.4 106 85.2l17.8-12.4L111.4 55"/>
<path fill="#d7c9a8" d="m104.6 14.9-21.8-.2-.1 21.9 21.8-.1z"/>
<path fill="#ecdcb8" d="M29.8 29.2C33 18.9 36.7 9.2 41 0H0v92.6c14.3-19.1 23.5-39.3 29.8-63.4"/>
<path fill="#ecdcb8" d="M256 92.6V0h-39.2C195.1 48.5 158 105.2 98.5 98.3c-32.8-3.8-52.2 6.5-67 22.3 18-4.6 39.1-8.8 64.3 0 31.2 10.9 49.3 6.2 79.2.7 24.7-4.5 39.8-.6 54.3 2.8 10.2-8.9 17.3-19.1 26.7-31.5z"/>
<path fill="#f3e2be" d="M245.9 75.8 233.4 58l-17.8 12.4 12.5 17.9 17.8-12.5"/>
<path fill="#f3e2be" d="m200.5 119.4 3.9-1.8-9.6-19.8-19.7 9.3 6.2 13.3c7.1-1 13.5-1.2 19.2-1z"/>
<path fill="#f3e2be" d="m121 111.7-2.6 14.5c7.7 1.1 14.8 1.2 22 .6l2.1-11.3-21.5-3.8z"/>
<path fill="#d7c9a8" d="m177.6 25.3-15.9-15.2-15 16 15.9 15 15-15.8"/>
</svg>
