<svg version="1.1" id="Layer_1" xmlns="http://www.w3.org/2000/svg" xmlns:xlink="http://www.w3.org/1999/xlink" x="0px" y="0px"
	 width="256px" height="256px" viewBox="0 0 256 256" enable-background="new 0 0 256 256" xml:space="preserve">
<g>
	<rect x="0" y="2182.07" fill="#8E603F" width="256" height="256"/>
</g>
<g>
	<rect x="0" y="0" fill="#8E603F" width="256" height="256"/>
</g>
<g>
	<g>
		<path fill="#956743" d="M137.68,39.35c5.7,7.23,11.48,13.81,18.82,19.42c7.03,5.38,14.66,9.83,22.35,14.2
			c6.9,3.92,15.01,7.45,20.82,12.97c5.71,5.42,9.12,12.6,12.61,19.55c2.91,5.79,11.08,7.43,16.42,4.31
			c5.89-3.45,7.23-10.61,4.31-16.42c-3.94-7.83-8.12-15.52-14.06-22.05c-6.39-7.04-14.97-11.69-23.14-16.33
			c-7.99-4.53-16.1-8.94-23.6-14.26c-6.97-4.95-12.31-11.7-17.56-18.35c-4.02-5.09-12.77-4.2-16.97,0
			C132.65,27.41,133.65,34.24,137.68,39.35L137.68,39.35z"/>
	</g>
</g>
<g>
	<g>
		<path fill="#956743" d="M18.58,40.16c5.42,9.67,14.17,16.2,23.21,22.26c10.05,6.74,20.26,13.24,30.42,19.81
			c16.28,10.52,34.99,22.12,40.09,42.15c3.81,14.96,26.96,8.62,23.14-6.38c-5.91-23.22-24.44-38.89-43.6-51.6
			c-9.92-6.58-20.01-12.91-29.97-19.44c-8.04-5.27-17.76-10.35-22.57-18.92C31.75,14.58,11.01,26.66,18.58,40.16L18.58,40.16z"/>
	</g>
</g>
<g>
	<g>
		<path fill="#956743" d="M127.16,180.59c8.34,15.85,22.48,28.04,36.03,39.37c7.47,6.25,15.19,11.82,24.23,15.54
			c7.97,3.28,16.89,4.29,24.48,8.4c13.58,7.36,25.71-13.35,12.11-20.72c-8.09-4.38-16.83-6.1-25.44-9
			c-6.84-2.3-12.91-6.6-18.41-11.19c-11.96-10-24.92-20.51-32.28-34.51c-3.02-5.73-11-7.47-16.42-4.31
			C125.66,167.56,124.14,174.83,127.16,180.59L127.16,180.59z"/>
	</g>
</g>
<g>
	<g>
		<path fill="#956743" d="M19.8,143.13c5.42,7.39,13.1,11.71,18.84,17.61c2.29,2.35,3.08,6.26,3.84,10.45
			c0.97,5.33,1.74,10.71,3.05,15.98c2.72,10.89,7.69,21.25,14.68,30.04c6.66,8.38,16.21,13.43,25.15,19.01
			c13.14,8.21,25.2-12.55,12.11-20.72c-7-4.37-15.02-8.08-19.92-14.93c-5.76-8.04-8.59-17.23-10.37-26.85
			c-1.9-10.33-3.09-20.14-10.2-28.44c-4.92-5.74-12.89-9.37-16.47-14.25c-3.83-5.22-10.41-7.82-16.42-4.31
			C18.96,129.72,15.95,137.87,19.8,143.13L19.8,143.13z"/>
	</g>
</g>
<g>
	<g>
		<path fill="#956743" d="M192.14,157.42c4.66,6.16,10.06,11.08,16.92,14.73c6.17,3.28,13.34,4.87,19.24,8.47
			c13.21,8.08,25.28-12.67,12.11-20.72c-8.45-5.17-21.22-6.23-27.55-14.6c-3.9-5.16-10.35-7.85-16.42-4.31
			C191.36,143.97,188.21,152.22,192.14,157.42L192.14,157.42z"/>
	</g>
</g>
<polygon fill="#7C563C" points="130,145 135,144 137,150 128.95,150 "/>
<polygon fill="#7C563C" points="130,140 135.38,137.07 131,134 "/>
<polygon fill="#7C563C" points="132,156 139,155 139,160.26 "/>
<polygon fill="#7C563C" points="126,149 127,145 122.64,147 "/>
<polygon fill="#7C563C" points="132.69,141.08 136.48,140 135.5,143.27 "/>
<polygon fill="#7C563C" points="36.07,160.26 40,166 33,168 33,163.27 "/>
<polygon fill="#7C563C" points="36,171 41,169 41,174.53 "/>
<polygon fill="#7C563C" points="32.51,160.81 35,159 31,157 "/>
<polygon fill="#7C563C" points="216.62,147 222.64,151.36 221,146 "/>
<polygon fill="#7C563C" points="46,29 49.36,29 46,34.11 "/>
<polygon fill="#7C563C" points="48,35 51.41,31.55 53.6,34.11 50.8,36.84 "/>
<polygon fill="#7C563C" points="53,38 54.84,36.84 56,41 "/>
<polygon fill="#7C563C" points="135.5,16.01 141,15 137.53,10.4 "/>
<polygon fill="#7C563C" points="136.48,18.34 141,16.01 137.53,20.81 "/>
<polygon fill="#7C563C" points="189,207 192,203 187,202 "/>
<polygon fill="#7C563C" points="191,208 194,205 197,209 194,210.4 "/>
<polygon fill="#7C563C" points="196,212 199,211 202.5,213.82 "/>
<polygon fill="#A0623C" points="173,102 177.75,99.43 181.82,102 181.82,106.84 177.41,108.07 "/>
<polygon fill="#A0623C" points="172,97 175,95 172,92.45 "/>
<polygon fill="#A0623C" points="180,113 183,112 183,116.15 "/>
<polygon fill="#A0623C" points="16,131 19,125 14.84,125 "/>
<polygon fill="#A0623C" points="16.92,122.86 20,124 25,122 "/>
<polygon fill="#A0623C" points="60.79,78.21 66,81 63.4,85.19 58,83 "/>
<path fill="#A0623C" d="M56,79.44c0,0,3-4.05,2-4.25s-5-1.23-5-1.23L56,79.44z"/>
<polygon fill="#A0623C" points="67,86 70,84 72,87 "/>
<polygon fill="#A0623C" points="156,217 157,223 161,221 "/>
<polygon fill="#A0623C" points="159,224 163.05,223 167,228 "/>
<polygon fill="#A0623C" points="227,27 232,23 237.58,25 237.58,29.58 230,32 "/>
<polygon fill="#A0623C" points="225.25,29 227,32.86 222.64,33.55 "/>
<polygon fill="#7C563C" points="94,35 99,30 104.15,32.5 106.21,36.84 101,40 "/>
<polygon fill="#7C563C" points="60.79,244.78 66,241.36 75,244 69.5,248.07 65,249 "/>
</svg>
