<svg version="1.1" id="Layer_1" xmlns="http://www.w3.org/2000/svg" xmlns:xlink="http://www.w3.org/1999/xlink" x="0px" y="0px"
	 width="256px" height="256px" viewBox="0 0 256 256" enable-background="new 0 0 256 256" xml:space="preserve">
<polyline opacity="0.1" fill="none" stroke="#000000" stroke-width="18" stroke-linejoin="round" stroke-miterlimit="10" points="
	128,0 128,5.6 150.18,38.13 149.74,86.87 125.45,122.06 114.74,138.37 75.09,126.33 49.69,126.99 18.33,139.8 5,128 0,128 "/>
<polyline fill="#69462e" points="128,0 128,5.6 150.18,38.13 149.74,86.87 125.45,122.06 114.74,138.37 75.09,126.33 49.69,126.99 
	18.33,139.8 5,128 0,128 0,0 "/>
<polyline fill="none" stroke="#4f3422" stroke-width="4" stroke-linejoin="round" stroke-miterlimit="10" points="128,0 128,5.6 
	150.18,38.13 149.74,86.87 125.45,122.06 114.74,138.37 75.09,126.33 49.69,126.99 18.33,139.8 5,128 0,128 "/>
<g>
	<path fill="#4f3422" d="M76.1,27.4c0.78,2.06,0.28,5.13-1.11,6.84l-0.18,0.22c-1.39,1.7-4.31,2.81-6.48,2.46l-0.27-0.04
		c-2.17-0.35-4.59-2.32-5.37-4.38l-0.1-0.26c-0.78-2.06-0.28-5.13,1.11-6.84l0.18-0.22c1.39-1.7,4.31-2.81,6.48-2.46l0.27,0.04
		c2.17,0.35,4.59,2.32,5.37,4.38L76.1,27.4z"/>
</g>
<g>
	<path fill="#4f3422" d="M28.91,70.59c2.2-0.08,4.95,1.39,6.12,3.26L39,80.22c1.17,1.87,1.27,4.98,0.24,6.92l-3.53,6.63
		c-1.03,1.94-3.68,3.59-5.88,3.67l-7.51,0.26c-2.2,0.08-4.95-1.39-6.12-3.26l-3.98-6.37c-1.17-1.87-1.27-4.98-0.24-6.92l3.53-6.63
		c1.03-1.94,3.68-3.59,5.88-3.67L28.91,70.59z"/>
</g>
<g>
	<path fill="#4f3422" d="M116.03,79.98c-1.26,1.81-4.08,3.13-6.27,2.95l-0.3-0.03c-2.19-0.18-4.75-1.96-5.69-3.95l-0.13-0.27
		c-0.94-1.99-0.68-5.1,0.58-6.9l0.17-0.25c1.26-1.81,4.08-3.13,6.27-2.95l0.3,0.03c2.19,0.18,4.75,1.96,5.69,3.95l0.13,0.27
		c0.94,1.99,0.68,5.1-0.58,6.9L116.03,79.98z"/>
</g>
</svg>
