<svg version="1.1" id="Layer_1" xmlns="http://www.w3.org/2000/svg" xmlns:xlink="http://www.w3.org/1999/xlink" x="0px" y="0px"
	 width="256px" height="256px" viewBox="0 0 256 256" enable-background="new 0 0 256 256" xml:space="preserve">
<g>
	<rect x="0" y="0" fill="#8E603F" width="256" height="256"/>
</g>
<g>
	<g>
		<path fill="#956743" d="M97.47,28.15c22.65,8.18,46.81,12.92,68.2,24.28c9.9,5.26,18.49,11.73,25.94,20.13
			c7.57,8.53,15.69,18.36,20.32,28.83c2.51,5.68,10.8,7.01,15.73,4.13c5.86-3.43,6.65-10.03,4.13-15.73
			c-2.66-6.02-6.61-11.22-10.5-16.49c-4.11-5.56-8.27-11.12-12.82-16.33c-8.37-9.57-18.55-17.48-29.69-23.59
			c-23.57-12.92-50.1-18.35-75.19-27.4C97.74,3.86,90.99,8.35,89.43,14C87.68,20.39,91.6,26.03,97.47,28.15L97.47,28.15z"/>
	</g>
</g>
<g>
	<g>
		<path fill="#956743" d="M15.56,176.17c12.37,7.06,25.11,14.07,35.94,23.43c10.88,9.42,19.4,20.7,26.56,33.12
			c7.39,12.82,27.27,1.25,19.86-11.61C89.87,207.16,80,193.9,67.76,183.34c-12.38-10.68-26.44-18.95-40.59-27.03
			C14.29,148.97,2.69,168.83,15.56,176.17L15.56,176.17z"/>
	</g>
</g>
<g>
	<g>
		<path fill="#956743" d="M52.94,106.4c-3.71-3.51-5.35-9.88-6.95-14.61c-2.2-6.52-3.88-13.22-5.02-20.01
			c-2.36-14.05-2.16-28.13-9.88-40.67c-7.75-12.58-27.65-1.04-19.86,11.61c7.22,11.72,5.8,27.35,8.57,40.47
			c1.42,6.73,3.37,13.36,5.84,19.78c2.7,7.04,5.44,14.4,11.03,19.69C47.43,132.82,63.73,116.59,52.94,106.4L52.94,106.4z"/>
	</g>
</g>
<g>
	<g>
		<path fill="#956743" d="M81.44,79.09c5.17,2.19,10.74,4.42,15.13,7.99c4.05,3.29,6.46,7.98,8.11,12.83
			c3.97,11.72,5.65,24.2,7.69,36.36c2.06,12.25,4.3,24.58,8.81,36.21c4.56,11.76,10.88,24.46,22.92,30.05
			c5.63,2.61,12.39,1.59,15.73-4.13c2.91-4.97,1.53-13.11-4.13-15.73c-9.4-4.36-12.97-16.85-15.62-26.12
			c-3.44-12.03-5.15-24.46-7.28-36.76c-2.14-12.36-4.48-25.06-10.25-36.32c-6.23-12.16-17.33-19.08-29.51-24.24
			c-5.71-2.42-12.32-1.71-15.73,4.13C74.49,68.18,75.68,76.65,81.44,79.09L81.44,79.09z"/>
	</g>
</g>
<g>
	<g>
		<path fill="#956743" d="M192.5,173.91c4.72,1.72,9.47,5.39,11,9.94c1.25,3.7,0.95,7.76,1.28,11.61c0.41,4.72,1.06,9.46,1.99,14.1
			c3.16,15.77,10.47,39.61,29.28,42.18c6.15,0.84,12.35-1.48,14.15-8.03c1.47-5.36-1.84-13.3-8.03-14.15
			c-6.61-0.9-8.66-9.79-10.42-15.31c-2.56-8.03-3.75-15.98-4.32-24.34c-0.64-9.24-2.66-17.44-8.61-24.73
			c-5.29-6.48-12.45-10.6-20.21-13.44c-5.83-2.13-12.6,2.39-14.15,8.03C182.71,166.17,186.65,171.77,192.5,173.91L192.5,173.91z"/>
	</g>
</g>
<g>
	<g>
		<path fill="#956743" d="M90.86,80.27c2.96,3.11,5.3,6.8,6.75,10.84c1.55,4.32,2.01,8.91,2.63,13.43c0.62,4.49,1.6,8.76,3.45,12.92
			c1.82,4.09,3.75,8.34,6.66,11.78c3.52,4.15,7.65,7.85,11.49,11.7c0.91,0.91,2.32-0.5,1.41-1.41c-3.42-3.43-6.94-6.8-10.26-10.33
			c-3.24-3.44-5.24-7.66-7.2-11.91c-1.97-4.26-2.99-8.64-3.63-13.27c-0.62-4.52-1.08-9.1-2.63-13.43
			c-1.57-4.38-4.06-8.36-7.26-11.73C91.39,77.92,89.98,79.34,90.86,80.27L90.86,80.27z"/>
	</g>
</g>
<g>
	<g>
		<path fill="#956743" d="M79.35,224.11c-0.89,1.99-4.31,0-5.68-0.54c-1.93-0.76-3.84-1.56-5.7-2.48c-3.62-1.8-6.95-4.08-9.51-7.24
			c-2.68-3.3-4.62-7.19-6.66-10.91c-1.97-3.58-3.93-7.17-6.11-10.63c-2.47-3.93-5.25-7.67-8.52-10.98c-0.91-0.92-2.32,0.5-1.41,1.41
			c6.41,6.49,10.68,14.61,15.03,22.52c2.17,3.94,4.3,8,7.4,11.31c2.96,3.16,6.75,5.37,10.66,7.12c2.24,1.01,4.53,1.95,6.84,2.78
			c1.89,0.68,4.42,0.79,5.39-1.37C81.6,223.96,79.88,222.94,79.35,224.11L79.35,224.11z"/>
	</g>
</g>
<g>
	<g>
		<path fill="#956743" d="M226.9,83.8c0.7-6.33-1.65-12.36-4.15-18.05c-2.45-5.57-5.01-11.1-9.06-15.71
			c-7.63-8.67-18.73-13.46-29.86-15.7c-7.2-1.45-14.55-1.96-21.88-2.27c-1.29-0.05-1.28,1.95,0,2c12.04,0.51,24.47,1.56,35.55,6.68
			c4.84,2.24,9.38,5.19,13.16,8.98c4.04,4.05,6.73,8.97,9.08,14.13c2.84,6.25,5.95,12.9,5.17,19.94
			C224.75,85.07,226.76,85.06,226.9,83.8L226.9,83.8z"/>
	</g>
</g>
<polygon fill="#7C563C" points="173,67 175,63 180.04,67 176,74 "/>
<polygon fill="#7C563C" points="183,70 180.04,74 185.38,75.72 186.48,72.86 "/>
<path fill="#7C563C" d="M173,62.45c0-0.45-3.23-4.02-3.23-4.02v5.94L173,62.45z"/>
<polygon fill="#7C563C" points="193,178 195,184 198,180 "/>
<polygon fill="#7C563C" points="201,186 203.19,192.6 199,194 197,188 "/>
<path fill="#7C563C" d="M200.1,199.71c-0.1,0.29,3.1,8.63,3.1,8.63v-9.45L200.1,199.71z"/>
<polygon fill="#7C563C" points="199,202 198,205.96 201,207 "/>
<polygon fill="#7C563C" points="200,195 199.5,197.27 202,197 203,195 "/>
<path fill="#7C563C" d="M136,132l-1-8c0,0,6-2,6-1s0,9,0,9H136z"/>
<path fill="#7C563C" d="M138,136.31c0-0.31,3-1.33,3-1.33l1,8.01l-4-1.83V136.31z"/>
<polygon fill="#7C563C" points="140,146.03 142,146.62 142,151.63 "/>
<polygon fill="#7C563C" points="135,119.53 135,109.89 141,118.5 "/>
<polygon fill="#7C563C" points="144,126 144,140.22 146.03,133.11 "/>
<path fill="#7C563C" d="M52,100l5-1c0,0,2,8,1,8S52,100,52,100z"/>
<polygon fill="#7C563C" points="51,97 54.67,96.41 49,90 "/>
<polygon fill="#7C563C" points="112,147 110,157 114,158 "/>
<polygon fill="#7C563C" points="112,161.79 114,161.79 118,168 "/>
<polygon fill="#7C563C" points="61.22,148.83 61.22,143 68,137 73,142.91 66,150 "/>
<polygon fill="#7C563C" points="155,238 160,235 164,242 155,246.15 "/>
<polygon fill="#7C563C" points="235,29 242,35 245,27 236,25 "/>
<polygon fill="#A0623C" points="203.19,127.36 205.07,119.53 211.85,123.44 206.99,128 "/>
<path fill="#A0623C" d="M211,130c1,0,4.97-2.64,4.97-2.64l1.37,5.75L211,130z"/>
<path fill="#A0623C" d="M199.04,119.53C199,120,195.5,126,195.5,126l-7.51-3.28L199.04,119.53z"/>
<path fill="#A0623C" d="M14,81l3.2-1.44c0,0-3.2-6.84-3.2-6.7s-2.98,6.27-2.99,6.7S14,81,14,81z"/>
<path fill="#A0623C" d="M8.66,72.86C9,73,14.1,67.85,14.1,67.85L13,60l-4.34-1.57V72.86z"/>
<polygon fill="#A0623C" points="8.66,54.15 10,49 12.48,54.15 "/>
<polygon fill="#A0623C" points="28,188 32,192 29.42,196.58 "/>
<polygon fill="#A0623C" points="32,198.01 35.75,195 40,200 38,203 "/>
<path fill="#A0623C" d="M41,205l2.55-3c0,0,2.74,5,3.09,5S41,205,41,205z"/>
<path fill="#A0623C" d="M124,18l5.98-0.94c0,0,0.98,7.94,0,7.94S122,22,122,22L124,18z"/>
<path fill="#A0623C" d="M134,20c0,1-1,6-1,6h7L134,20z"/>
<polygon fill="#A0623C" points="138,195 142,194 145.02,200.51 "/>
<polygon fill="#A0623C" points="81.83,204.02 85.96,208.34 81,210 "/>
<polygon fill="#A0623C" points="221,177 224.36,186 218.18,184 "/>
<path fill="#A0623C" d="M219.21,188c0,0,6.52,1.05,5.15,1.02c-1.36-0.02,0.19,7.11,0.19,7.11L219.21,188z"/>
</svg>
