<svg version="1.1" id="Layer_1" xmlns="http://www.w3.org/2000/svg" xmlns:xlink="http://www.w3.org/1999/xlink" x="0px" y="0px"
	 width="256px" height="256px" viewBox="0 0 256 256" enable-background="new 0 0 256 256" xml:space="preserve">
<polyline opacity="0.1" fill="none" stroke="#000000" stroke-width="18" stroke-linejoin="round" stroke-miterlimit="10" points="
	128,0 128,5.6 150.18,38.13 149.74,86.87 160.64,89.96 164.91,102.92 173.45,114.11 200.39,129.72 227.63,118.67 251.04,128 
	256,128 "/>
<polyline fill="#69462e" points="128,0 128,5.6 150.18,38.13 149.74,86.87 160.64,89.96 164.91,102.92 173.45,114.11 200.39,129.72 
	227.63,118.67 251.04,128 256,128 256,256 0,256 0,0 "/>
<polyline fill="none" stroke="#4f3422" stroke-width="4" stroke-linejoin="round" stroke-miterlimit="10" points="128,0 128,5.6 
	150.18,38.13 149.74,86.87 160.64,89.96 164.91,102.92 173.45,114.11 200.39,129.72 227.63,118.67 251.04,128 256,128 "/>
<g>
	<path fill="#4f3422" d="M76.1,27.4c0.78,2.06,0.28,5.13-1.11,6.84l-0.18,0.22c-1.39,1.7-4.31,2.81-6.48,2.46l-0.27-0.04
		c-2.17-0.35-4.59-2.32-5.37-4.38l-0.1-0.26c-0.78-2.06-0.28-5.13,1.11-6.84l0.18-0.22c1.39-1.7,4.31-2.81,6.48-2.46l0.27,0.04
		c2.17,0.35,4.59,2.32,5.37,4.38L76.1,27.4z"/>
</g>
<g>
	<path fill="#4f3422" d="M28.91,70.59c2.2-0.08,4.95,1.39,6.12,3.26L39,80.22c1.17,1.87,1.27,4.98,0.24,6.92l-3.53,6.63
		c-1.03,1.94-3.68,3.59-5.88,3.67l-7.51,0.26c-2.2,0.08-4.95-1.39-6.12-3.26l-3.98-6.37c-1.17-1.87-1.27-4.98-0.24-6.92l3.53-6.63
		c1.03-1.94,3.68-3.59,5.88-3.67L28.91,70.59z"/>
</g>
<g>
	<path fill="#4f3422" d="M116.03,79.98c-1.26,1.81-4.08,3.13-6.27,2.95l-0.3-0.03c-2.19-0.18-4.75-1.96-5.69-3.95l-0.13-0.27
		c-0.94-1.99-0.68-5.1,0.58-6.9l0.17-0.25c1.26-1.81,4.08-3.13,6.27-2.95l0.3,0.03c2.19,0.18,4.75,1.96,5.69,3.95l0.13,0.27
		c0.94,1.99,0.68,5.1-0.58,6.9L116.03,79.98z"/>
</g>
<g>
	<path fill="#4f3422" d="M92.97,109.9c1.99,0.94,3.77,3.5,3.95,5.69l0.45,5.42c0.18,2.19-1.15,5.01-2.96,6.27l-4.47,3.1
		c-1.81,1.25-4.92,1.51-6.9,0.57l-4.92-2.32c-1.99-0.94-3.77-3.5-3.95-5.69l-0.45-5.42c-0.18-2.19,1.15-5.01,2.96-6.27l4.47-3.1
		c1.81-1.25,4.92-1.51,6.9-0.57L92.97,109.9z"/>
</g>
<g>
	<path fill="#4f3422" d="M222.54,173.04c0.37,2.17-0.71,5.09-2.41,6.5l-3.63,3.01c-1.69,1.4-4.77,1.93-6.83,1.16l-4.42-1.64
		c-2.06-0.76-4.05-3.16-4.42-5.33l-0.79-4.65c-0.37-2.17,0.71-5.09,2.41-6.5l3.63-3.01c1.69-1.4,4.77-1.93,6.83-1.16l4.42,1.64
		c2.06,0.76,4.05,3.16,4.42,5.33L222.54,173.04z"/>
</g>
<g>
	<path fill="#4f3422" d="M138.44,172.54c-0.83,2.04-3.29,3.96-5.46,4.26l-4.65,0.65c-2.18,0.3-5.07-0.87-6.42-2.6l-2.89-3.7
		c-1.35-1.74-1.78-4.82-0.96-6.86l1.76-4.35c0.83-2.04,3.29-3.96,5.46-4.26l4.65-0.65c2.18-0.3,5.07,0.87,6.42,2.6l2.89,3.7
		c1.35,1.74,1.78,4.82,0.96,6.86L138.44,172.54z"/>
</g>
<g>
	<path fill="#4f3422" d="M159.76,237.24c0.81-2.05,3.25-3.99,5.42-4.31l0.28-0.04c2.18-0.33,5.08,0.82,6.45,2.54l0.17,0.22
		c1.37,1.72,1.83,4.81,1.02,6.85l-0.1,0.26c-0.81,2.05-3.25,3.99-5.42,4.31l-0.28,0.04c-2.18,0.33-5.08-0.82-6.45-2.54l-0.17-0.22
		c-1.37-1.72-1.83-4.81-1.02-6.85L159.76,237.24z"/>
</g>
<g>
	<path fill="#4f3422" d="M48.21,180.52c-0.28,2.18-2.17,4.66-4.2,5.51l-4.06,1.7c-2.03,0.85-5.12,0.45-6.87-0.88l-3.5-2.66
		c-1.75-1.33-2.95-4.21-2.68-6.39l0.56-4.36c0.28-2.18,2.17-4.66,4.2-5.51l4.06-1.7c2.03-0.85,5.12-0.45,6.87,0.88l3.5,2.66
		c1.75,1.33,2.95,4.21,2.68,6.39L48.21,180.52z"/>
</g>
<g>
	<path fill="#4f3422" d="M92.88,235.41c-0.07,2.2-1.7,4.85-3.64,5.89l-3.32,1.79c-1.94,1.04-5.05,0.95-6.93-0.21l-3.21-1.98
		c-1.87-1.16-3.35-3.9-3.28-6.1l0.11-3.77c0.07-2.2,1.7-4.85,3.64-5.89l3.32-1.79c1.94-1.04,5.05-0.95,6.93,0.21l3.21,1.98
		c1.87,1.16,3.35,3.9,3.28,6.1L92.88,235.41z"/>
</g>
<g>
	<path fill="#4f3422" d="M182.32,198.37c0.22,1.27-0.41,3-1.4,3.83s-2.8,1.14-4.01,0.7c-1.21-0.45-2.39-1.85-2.61-3.13
		c-0.22-1.27,0.41-3,1.4-3.83s2.8-1.14,4.01-0.7C180.92,195.69,182.1,197.09,182.32,198.37z"/>
</g>
<g>
	<path fill="#4f3422" d="M22.16,239.56c-0.61,1.94-2.73,3.89-4.72,4.34s-4.74-0.42-6.11-1.92c-1.38-1.5-2-4.31-1.4-6.25
		c0.61-1.94,2.73-3.89,4.72-4.34s4.74,0.42,6.11,1.92C22.14,234.81,22.77,237.62,22.16,239.56z"/>
</g>
</svg>
