<svg version="1.1" id="Layer_1" xmlns="http://www.w3.org/2000/svg" xmlns:xlink="http://www.w3.org/1999/xlink" x="0px" y="0px"
	 width="256px" height="256px" viewBox="0 0 256 256" enable-background="new 0 0 256 256" xml:space="preserve">
<path opacity="0.1" fill="none" stroke="#000000" stroke-width="18" stroke-linejoin="round" stroke-miterlimit="10" d="M128,0v5.6
	l22.18,32.54l-0.44,48.74l-24.29,35.19l16.05,40.79l-19.3,27.98c0,0-0.43,18.55,0.01,18.85s19.14,22.67,19.14,22.67L128,251.48V256"
	/>
<path fill="#69462e" d="M128,0v5.6l22.18,32.54l-0.44,48.74l-24.29,35.19l16.05,40.79l-19.3,27.98c0,0-0.43,18.55,0.01,18.85
	s19.14,22.67,19.14,22.67L128,251.48V256H0V0"/>
<path fill="none" stroke="#4f3422" stroke-width="4" stroke-linejoin="round" stroke-miterlimit="10" d="M128,0v5.6l22.18,32.54
	l-0.44,48.74l-24.29,35.19l16.05,40.79l-19.3,27.98c0,0-0.43,18.55,0.01,18.85s19.14,22.67,19.14,22.67L128,251.48V256"/>
<g>
	<path fill="#4f3422" d="M76.1,27.4c0.78,2.06,0.28,5.13-1.11,6.84l-0.18,0.22c-1.39,1.7-4.31,2.81-6.48,2.46l-0.27-0.04
		c-2.17-0.35-4.59-2.32-5.37-4.38l-0.1-0.26c-0.78-2.06-0.28-5.13,1.11-6.84l0.18-0.22c1.39-1.7,4.31-2.81,6.48-2.46l0.27,0.04
		c2.17,0.35,4.59,2.32,5.37,4.38L76.1,27.4z"/>
</g>
<g>
	<path fill="#4f3422" d="M28.91,70.59c2.2-0.08,4.95,1.39,6.12,3.26L39,80.22c1.17,1.87,1.27,4.98,0.24,6.92l-3.53,6.63
		c-1.03,1.94-3.68,3.59-5.88,3.67l-7.51,0.26c-2.2,0.08-4.95-1.39-6.12-3.26l-3.98-6.37c-1.17-1.87-1.27-4.98-0.24-6.92l3.53-6.63
		c1.03-1.94,3.68-3.59,5.88-3.67L28.91,70.59z"/>
</g>
<g>
	<path fill="#4f3422" d="M116.03,79.98c-1.26,1.81-4.08,3.13-6.27,2.95l-0.3-0.03c-2.19-0.18-4.75-1.96-5.69-3.95l-0.13-0.27
		c-0.94-1.99-0.68-5.1,0.58-6.9l0.17-0.25c1.26-1.81,4.08-3.13,6.27-2.95l0.3,0.03c2.19,0.18,4.75,1.96,5.69,3.95l0.13,0.27
		c0.94,1.99,0.68,5.1-0.58,6.9L116.03,79.98z"/>
</g>
<g>
	<path fill="#4f3422" d="M77.97,169.93c-1.58,1.53-4.61,2.29-6.72,1.68l-4.57-1.31c-2.12-0.61-4.28-2.85-4.82-4.98l-1.15-4.61
		c-0.53-2.13,0.32-5.13,1.91-6.66l3.41-3.3c1.58-1.53,4.61-2.29,6.72-1.68l4.57,1.31c2.12,0.61,4.28,2.85,4.82,4.98l1.15,4.61
		c0.53,2.13-0.32,5.13-1.91,6.66L77.97,169.93z"/>
</g>
<g>
	<path fill="#4f3422" d="M108.05,237.64c-0.75,2.07-3.14,4.07-5.31,4.45l-2.62,0.46c-2.17,0.38-5.1-0.69-6.51-2.37l-1.71-2.04
		c-1.41-1.69-1.95-4.76-1.2-6.82l0.91-2.5c0.75-2.07,3.14-4.07,5.31-4.45l2.62-0.46c2.17-0.38,5.1,0.69,6.51,2.37l1.71,2.04
		c1.41,1.69,1.95,4.76,1.2,6.82L108.05,237.64z"/>
</g>
<g>
	<path fill="#4f3422" d="M39.11,209.28c0.6,2.12-0.17,5.14-1.71,6.71l-3.17,3.25c-1.54,1.58-4.54,2.42-6.67,1.88L23.17,220
		c-2.13-0.54-4.36-2.72-4.96-4.84l-1.23-4.37c-0.6-2.12,0.17-5.14,1.71-6.71l3.17-3.25c1.54-1.58,4.54-2.42,6.67-1.88l4.39,1.12
		c2.13,0.54,4.36,2.72,4.96,4.84L39.11,209.28z"/>
</g>
</svg>
