<svg xmlns="http://www.w3.org/2000/svg" viewBox="0 0 256 256">
	<path fill="#3aa049" d="M0 0h256v256H0z"/>
	<path fill="#3da84d" d="M30.118 43.316c2.567-3.62 15.273-4.609 23.741 1.398s11.163 13.37 6.45 20.016c-4.715 6.646-12.555 6.537-21.023.53-8.469-6.006-11.735-18.325-9.168-21.944z"/>
	<path fill="#3da84d" d="M209.6 147.22c.852 3.014-4.233 10.435-11.285 12.428-7.052 1.993-12.293.212-13.857-5.323s1.969-9.795 9.022-11.788c7.052-1.993 15.269 1.67 16.12 4.683z"/>
	<path fill="#379843" d="M123.29 210.84c2.533 3.325-.148 15.027-7.929 20.953-7.78 5.926-15.158 6.28-19.809.173-4.65-6.106-2.35-13.124 5.431-19.05 7.78-5.927 19.774-5.402 22.307-2.076z"/>
	<path fill="#3da84d" d="M126.07 98.45c4.902 1.795 9.953 15.911 5.753 27.381-4.2 11.47-11.725 16.805-20.726 13.509s-11.302-12.229-7.102-23.699c4.2-11.47 17.173-18.986 22.075-17.191z"/>
	<path fill="#379843" d="M230.32 89.187c-3.477 2.32-14.988-1.088-20.416-9.224-5.428-8.136-5.32-15.52 1.066-19.78 6.385-4.26 13.246-1.525 18.674 6.61 5.428 8.137 4.154 20.074.676 22.394z"/>
	<path fill="#3da84d" stroke="#3da84d" stroke-linecap="round" stroke-linejoin="round" stroke-width="8.5" d="m226.34 224.6-6.468 3.847-2.881 6.951-6.566-3.678-7.46.98-.098-7.524-4.58-5.972 6.468-3.847 2.882-6.95 6.565 3.677 7.461-.98.098 7.524z"/>
	<path fill="#379843" stroke="#379843" stroke-linecap="round" stroke-linejoin="round" stroke-width="10" d="m157.06 24.39-5.457 6.971-.204 8.85-8.765-1.24-7.767 4.25-3.308-8.212-7.563-4.602 5.457-6.97.203-8.851 8.766 1.24 7.766-4.249 3.309 8.211z"/>
	<path fill="#379843" stroke="#379843" stroke-linecap="round" stroke-linejoin="round" stroke-width="6" d="m54.632 204.03-4.57 2.708-2.041 4.904-4.63-2.603-5.268.683-.06-5.311-3.226-4.22 4.569-2.709 2.042-4.903 4.63 2.603 5.268-.684.06 5.312z"/>
	<path fill="#3da84d" stroke="#3da84d" stroke-linecap="round" stroke-linejoin="round" stroke-width="4.225" d="m42.953 125.34-3.215 1.912-1.432 3.455-3.263-1.828-3.708.487-.049-3.74-2.276-2.968 3.215-1.912 1.432-3.455 3.263 1.828 3.709-.487.048 3.74z"/>
  </svg>
