<svg xmlns="http://www.w3.org/2000/svg" viewBox="0 0 256 256">
	<path fill="#3aa049" d="M0 0h256v256H0z"/>
	<path fill="#3da84d" d="M243.53 156.55c.416 4.417-8.567 13.457-18.904 14.43s-17.183-2.848-17.947-10.961c-.764-8.113 5.248-13.144 15.585-14.118 10.337-.973 20.849 6.23 21.265 10.649z"/>
	<path fill="#379843" d="M48.841 104.95c-1.918 1.615-9.01.352-12.79-4.136-3.78-4.49-4.208-8.9-.686-11.866 3.523-2.967 7.797-1.794 11.576 2.695 3.78 4.489 3.818 11.692 1.9 13.307z"/>
	<path fill="#379843" d="M32.128 235.35c.49-2.46 6.817-5.902 12.572-4.757 5.755 1.145 8.845 4.322 7.946 8.84-.899 4.516-4.969 6.27-10.724 5.124-5.756-1.145-10.283-6.747-9.794-9.207z"/>
	<path fill="#3da84d" d="M178.54 35.701c3.102-.432 9.759 5.619 10.77 12.877 1.011 7.259-1.469 12.206-7.166 13-5.697.793-9.434-3.288-10.445-10.547-1.01-7.259 3.74-14.898 6.841-15.33z"/>
	<path fill="#379843" d="M134.22 194.13c-2.033-3.652 2.286-14.853 10.831-19.611 8.545-4.758 15.898-4.058 19.632 2.649 3.734 6.706.457 13.325-8.088 18.083-8.545 4.758-20.342 2.53-22.375-1.122z"/>
	<path fill="#3da84d" stroke="#3da84d" stroke-linecap="round" stroke-linejoin="round" stroke-width="8.5" d="m105.62 33.021-4.194 6.248.377 7.516-7.508-.508-6.32 4.083-3.315-6.755-6.696-3.432 4.193-6.248-.376-7.516 7.508.508 6.32-4.084 3.314 6.756z"/>
	<path fill="#379843" stroke="#379843" stroke-linecap="round" stroke-linejoin="round" stroke-width="10" d="m217.54 209.66.22 6.36 3.982 4.964-5.398 3.371-2.308 5.93-5.618-2.989-6.29.966-.221-6.36-3.981-4.964 5.397-3.371 2.31-5.93 5.617 2.988z"/>
	<path fill="#3da84d" stroke="#3da84d" stroke-linecap="round" stroke-linejoin="round" stroke-width="10" d="m42.96 160.99 3.004 5.61 5.763 2.698-3.356 5.407.545 6.34-6.36-.203-5.22 3.642-3.003-5.61-5.763-2.699 3.356-5.406-.545-6.34 6.36.203z"/>
	<path fill="#379843" stroke="#379843" stroke-linecap="round" stroke-linejoin="round" stroke-width="10" d="m124.16 117.86 1.115 4.304 3.44 2.82-3.129 3.063-.656 4.369-4.244-1.242-4.096 1.55-1.115-4.304-3.44-2.82 3.129-3.063.656-4.37 4.244 1.242z"/>
	<path fill="#3da84d" stroke="#3da84d" stroke-linecap="round" stroke-linejoin="round" stroke-width="4.626" d="m232.95 72.803 1.39 2.595 2.665 1.248-1.552 2.501.252 2.933-2.942-.094-2.414 1.685-1.39-2.595-2.666-1.249 1.553-2.5-.252-2.933 2.942.093z"/>
  </svg>
