<svg xmlns="http://www.w3.org/2000/svg" xml:space="preserve" viewBox="0 0 256 256">
	<rect width="256" height="256" fill="#1EA761"/>
	<path fill="#1C9E5B" d="M18.2 117c-3.2 4-7.3 3.3-9.1-1.4-1.8-4.7.8-8 5.8-7.2s6.5 4.7 3.3 8.6z"/>
	<path fill="#1C9E5B" d="M216.5 219.8c.7 5.5-2.9 8.2-8 6l-16.7-7c-5.1-2.1-5.6-6.6-1.3-9.9l14.5-11c4.4-3.3 8.5-1.6 9.2 3.9l2.3 18z"/>
	<path fill="#1C9E5B" d="M232.2 31.4c5 2.3 5.5 6.7 1 10L212.8 56c-4.5 3.2-8.6 1.4-9.1-4.1l-2.5-25c-.5-5.5 3.1-8.1 8.1-5.8l22.9 10.3z"/>
	<path fill="#1C9E5B" d="M181.6 133.5c-4.8 1-7.4-1.9-5.9-6.6 1.5-4.6 5.4-5.5 8.7-1.8 3.2 3.6 1.9 7.4-2.8 8.4z"/>
	<path fill="#1C9E5B" d="M40.2 28.8c-1.1 5.4-5.3 6.9-9.5 3.2l-5.9-5.1c-4.1-3.6-3.3-8 1.9-9.8l7.4-2.5c5.2-1.8 8.6 1.2 7.5 6.6l-1.4 7.6z"/>
	<path fill="#1C9E5B" d="M108 134c-3.5 4.3-7.9 3.6-9.9-1.6l-5.8-14.9c-2-5.1.8-8.6 6.3-7.8l15.8 2.5c5.4.9 7.1 5.1 3.6 9.3L108 134z"/>
	<path fill="#1C9E5B" d="M122.2 68.5c.5 5-2.8 7.4-7.4 5.3-4.6-2.1-5-6.2-.9-9.1 4.1-2.9 7.8-1.2 8.3 3.8z"/>
	<path fill="#1C9E5B" d="M47.4 192c-2.5 4.9-7 5.2-10 .6l-3.3-5c-3-4.6-1-8.6 4.5-8.9l5.9-.3c5.5-.3 8 3.4 5.5 8.4l-2.6 5.2z"/>
	<path fill="#1FAD64" d="M235.5 179.2c-3.2 4.4-7.7 4-9.9-1.1l-1.5-3.5c-2.2-5 .4-8.7 5.9-8.1l3.8.4c5.5.6 7.3 4.7 4.1 9.1l-2.4 3.2z"/>
	<path fill="#1FAD64" d="M51.5 150c-4.3.9-6.7-1.8-5.4-5.9 1.4-4.2 4.9-4.9 7.8-1.7s1.9 6.7-2.4 7.6z"/>
	<path fill="#1FAD64" d="M45.3 73.9c-2.7 4.1-6.8 3.9-9-.5s0-7.8 5-7.5 6.8 3.8 4 8z"/>
	<path fill="#1FAD64" d="M118.7 184.7c-4.1-3.6-3.3-8 1.9-9.8l5.9-2c5.2-1.8 8.6 1.2 7.5 6.6l-1.2 6.1c-1.1 5.4-5.3 6.9-9.5 3.2l-4.6-4.1z"/>
	<path fill="#1FAD64" d="M99.6 37.9c-3.2 4.4-7.7 4-9.9-1.1l-.4-.8c-2.2-5 .4-8.7 5.9-8.1l.9.1c5.5.6 7.3 4.7 4.1 9.1l-.6.8z"/>
	<path fill="#1FAD64" d="M149.1 45c-4.8-2.8-4.8-7.3 0-10l7.6-4.4c4.8-2.8 8.7-.5 8.7 5v8.8c0 5.5-3.9 7.8-8.7 5l-7.6-4.4z"/>
	<path fill="#1FAD64" d="M158.6 236.1c-2.2 5.1-6.6 5.6-9.9 1.2l-2.9-3.9c-3.3-4.4-1.5-8.5 3.9-9.2l4.9-.6c5.5-.7 8.2 2.9 6 8l-2 4.5z"/>
	<path fill="#1FAD64" d="M214.3 102.5c-2.4-4.4-.2-7.9 4.8-7.8s7 3.8 4.3 8.1c-2.6 4.3-6.7 4.1-9.1-.3z"/>
	<path fill="#1C9E5B" d="M81.6 243.2c-3.2 4-7.4 3.4-9.3-1.5s.8-8.1 5.9-7.3c5.1.8 6.6 4.8 3.4 8.8z"/>
  </svg>
