<svg xmlns="http://www.w3.org/2000/svg" xml:space="preserve" viewBox="0 0 256 256">
	<rect width="256" height="256" fill="#1EA761"/>
	<path fill="#1C9E5B" d="M194 139.2c-4.5-2.4-4.7-6.5-.4-9.2 4.3-2.7 8-.8 8.2 4.3.2 5.1-3.3 7.3-7.8 4.9z"/>
	<path fill="#1C9E5B" d="M67.8 236.1c-2.5 4.9-7 5.2-10 .6l-10-15.2c-3-4.6-1-8.6 4.5-8.9l18.1-1.1c5.5-.3 8 3.4 5.5 8.4l-8.1 16.2z"/>
	<path fill="#1C9E5B" d="M132.3 117.7c5.5.3 7.5 4.3 4.5 8.9l-13.8 21c-3 4.6-7.5 4.3-10-.6l-11.2-22.4c-2.5-4.9 0-8.7 5.5-8.3l25 1.4z"/>
	<path fill="#1C9E5B" d="M111.4 63.7c-.2-4.9 3.2-7 7.5-4.7s4.5 6.2.3 8.8c-4.1 2.6-7.6.8-7.8-4.1z"/>
	<path fill="#1C9E5B" d="M57.5 49.4c-4.7 2.9-8.6.8-8.8-4.7l-.3-7.8c-.2-5.5 3.6-7.9 8.5-5.3l6.9 3.7c4.9 2.6 5 7.1.4 10l-6.7 4.1z"/>
	<path fill="#1C9E5B" d="M201.3 74.4c-4.9 2.6-8.7.2-8.5-5.3l.6-16c.2-5.5 4.2-7.6 8.9-4.7l13.5 8.5c4.7 2.9 4.5 7.4-.4 10l-14.1 7.5z"/>
	<path fill="#1C9E5B" d="M33.7 135.8c-3.6 3.5-7.6 2.3-8.8-2.5-1.2-4.9 1.7-7.7 6.6-6.3 4.8 1.3 5.8 5.3 2.2 8.8z"/>
	<path fill="#1C9E5B" d="M219.2 218c-4.8 2.8-8.7.5-8.7-5v-6c0-5.5 3.9-7.8 8.7-5l5.1 3c4.8 2.8 4.8 7.2 0 10l-5.1 3z"/>
	<path fill="#1FAD64" d="M67.9 89.4c-5.4-1-6.9-5.2-3.4-9.4l2.4-2.9c3.6-4.2 8-3.4 9.8 1.8l1.3 3.6c1.9 5.2-1.1 8.6-6.5 7.6l-3.6-.7z"/>
	<path fill="#1FAD64" d="M12.9 233c-.5-4.4 2.4-6.5 6.4-4.8 4 1.7 4.4 5.3.9 7.9s-6.8 1.3-7.3-3.1z"/>
	<path fill="#1FAD64" d="M235.5 26.2c-4.9-.5-6.6-4.2-3.7-8.2 2.9-4 6.9-3.6 9 .9s-.4 7.8-5.3 7.3z"/>
	<path fill="#1FAD64" d="M156.2 159.7c3.6-4.2 8-3.4 9.8 1.8l2.1 5.9c1.9 5.2-1.1 8.6-6.5 7.6l-6.1-1.1c-5.4-1-6.9-5.2-3.4-9.4l4.1-4.8z"/>
	<path fill="#1FAD64" d="M231.3 101.8c-5.4-1.2-6.7-5.5-3-9.5l.6-.6c3.7-4.1 8.1-3.1 9.8 2.2l.3.8c1.6 5.2-1.4 8.6-6.8 7.4l-.9-.3z"/>
	<path fill="#1FAD64" d="M148.2 27.8c.6-5.5 4.7-7.3 9.1-4.1l7.1 5.2c4.4 3.2 4 7.7-1.1 9.9l-8 3.6c-5 2.2-8.7-.4-8.1-5.9l1-8.7z"/>
	<path fill="#1FAD64" d="M160.9 236.6c-5.2 1.7-8.6-1.3-7.4-6.7l1-4.8c1.2-5.4 5.4-6.8 9.5-3.1l3.6 3.3c4.1 3.7 3.1 8.1-2.1 9.8l-4.6 1.5z"/>
	<path fill="#1FAD64" d="M74 173.7c5 0 7.1 3.6 4.6 7.9-2.5 4.4-6.6 4.4-9.1 0-2.6-4.3-.5-7.9 4.5-7.9z"/>
	<path fill="#1C9E5B" d="M129.8 207.3c-5-1.1-6.3-5.2-2.8-9s7.6-2.9 9.2 2c1.5 5-1.3 8.1-6.4 7z"/>
  </svg>
