<svg xmlns="http://www.w3.org/2000/svg" xml:space="preserve" viewBox="0 0 256 256">
	<rect width="256" height="256" fill="#1EA761"/>
	<path fill="#1C9E5B" d="M231.8 122.8c.6 5-2.7 7.6-7.4 5.6s-5.2-6.1-1.2-9.2c4.1-3 8-1.4 8.6 3.6z"/>
	<path fill="#1C9E5B" d="M171 104.9c-1.6 5.3-6 6.3-9.7 2.3L148.8 94c-3.8-4-2.5-8.3 2.9-9.6l17.7-4.2c5.4-1.3 8.4 2 6.9 7.3l-5.3 17.4z"/>
	<path fill="#1C9E5B" d="M53.7 52.9c2 5.1-.8 8.6-6.2 7.8L22.6 57c-5.4-.8-7.1-5-3.6-9.3l15.7-19.6c3.4-4.3 7.9-3.6 9.9 1.5l9.1 23.3z"/>
	<path fill="#1C9E5B" d="M219.1 34.7c-2.1 4.4-6 4.8-8.8.8s-1.1-7.6 3.7-8c4.9-.5 7.2 2.7 5.1 7.2z"/>
	<path fill="#1C9E5B" d="M187.1 195.2c-3 4.6-7.5 4.3-10-.6l-3.5-7c-2.5-4.9 0-8.7 5.5-8.3l7.8.5c5.5.3 7.5 4.3 4.5 8.9l-4.3 6.5z"/>
	<path fill="#1C9E5B" d="M52.2 238.2c-1.6 5.3-6 6.3-9.7 2.3l-11-11.6c-3.8-4-2.5-8.3 2.9-9.6l15.6-3.7c5.4-1.3 8.4 2 6.9 7.3l-4.7 15.3z"/>
	<path fill="#1C9E5B" d="M65.3 167c2.9 4.1 1.1 7.8-3.8 8.3s-7.4-2.9-5.2-7.5c2-4.6 6.1-4.9 9-.8z"/>
	<path fill="#1C9E5B" d="M123.5 144c0 5.5-3.9 7.8-8.7 5l-5.1-3c-4.8-2.8-4.8-7.2 0-10l5.1-3c4.8-2.8 8.7-.5 8.7 5v6z"/>
	<path fill="#1FAD64" d="M110.5 189.9c-.8 5.4-5 7.1-9.3 3.6l-3-2.4c-4.3-3.4-3.6-7.9 1.5-9.9l3.5-1.4c5.1-2 8.6.8 7.8 6.3l-.5 3.8z"/>
	<path fill="#1FAD64" d="M34.5 194.8c-2.2 3.8-5.8 3.8-8 0s-.4-6.9 4-6.9 6.2 3.1 4 6.9z"/>
	<path fill="#1FAD64" d="M37.7 112.7c2.2 4.4 0 7.8-5 7.5s-6.8-3.9-4-8.1c2.7-4.1 6.7-3.9 9 .6z"/>
	<path fill="#1FAD64" d="M96.2 102.6c-5.3-1.3-6.6-5.6-2.8-9.6l4.3-4.5c3.8-4 8.2-2.9 9.7 2.4l1.7 6c1.5 5.3-1.6 8.5-6.9 7.2l-6-1.5z"/>
	<path fill="#1FAD64" d="M230 79.7c-.3 5.5-4.3 7.5-8.9 4.6l-.7-.5c-4.6-3-4.4-7.5.5-10l.8-.4c4.9-2.5 8.7-.1 8.4 5.4l-.1.9z"/>
	<path fill="#1FAD64" d="M120.9 49.2c-5.3 1.4-8.5-1.8-7.1-7.1l2.3-8.5c1.4-5.3 5.8-6.5 9.7-2.6l6.2 6.2c3.9 3.9 2.7 8.2-2.6 9.7l-8.5 2.3z"/>
	<path fill="#1FAD64" d="M222.4 217.5c.7 5.5-2.9 8.2-8 6l-4.5-1.9c-5.1-2.1-5.6-6.6-1.3-9.9l3.9-3c4.4-3.3 8.5-1.6 9.2 3.9l.7 4.9z"/>
	<path fill="#1FAD64" d="M179.4 154.2c-5-.5-6.7-4.3-3.7-8.3s7-3.6 9.1 1-.4 7.9-5.4 7.3z"/>
	<path fill="#1C9E5B" d="M134.4 225.6c.3 5.2-3.2 7.5-7.8 5.2s-4.9-6.5-.6-9.4c4.3-2.8 8.1-.9 8.4 4.2z"/>
  </svg>
