<svg xmlns="http://www.w3.org/2000/svg" xml:space="preserve" viewBox="0 0 256 256">
	<path fill="#3AA049" d="M0 0v128l10.31-11.98 10.31 18.11 11.63-13.84 11.04 14.48 9.42-19.63 12.86 15.9s10.63-13.99 10.97-13.55c.33.44 10.79 15.31 10.79 15.31l17.08-14.67 3.68 13.94s13.1-9.86 13.25-10.31c.15-.44 11.93 15.17 11.93 15.17l7.8-15.46 8.83 13.3 11.63-13.59 11.63 14.72 6.48-15.17 12.96 16.2 7.71-17.96 14.55 16.49 3.46-13.6 9.09 15.07 10.39-15.46 6.48 16.93 4.71-16.49L256 128V0H0z"/>
	<path fill="#3DA84D" d="M44.27 21.44c2.71-3.56 15.55-4.13 23.88 2.22 8.33 6.34 10.8 13.85 5.82 20.39s-12.87 6.16-21.2-.18c-8.34-6.34-11.21-18.87-8.5-22.43z"/>
	<path fill="#379843" d="M149.37 105.78c-3.76 2.13-15.39-2.26-20.38-11.07s-4.32-16.43 2.6-20.35c6.91-3.92 13.79-.57 18.78 8.24 4.98 8.82 2.76 21.05-1 23.18z"/>
	<path fill="#379843" d="M215.9 126.34c-.85-.11-1.71.15-2.35.72-.65.56-1.02 1.38-1.03 2.23l-.02 2.82-.28.37 2.02 2.3.61.69 2.28-8.96-1.23-.17z"/>
	<path fill="#379843" d="M230.29 132.63c-.2-.77-.68-1.44-1.37-1.84l-2.43-1.43-1.09-2.6a3.005 3.005 0 0 0-4.25-1.45l-.57.32 5.1 8.45.53.87 1.2 1.99 2.88-4.31z"/>
	<path fill="#3DA84D" stroke="#3DA84D" stroke-linecap="round" stroke-linejoin="round" stroke-width="10" d="m206.26 27.2 3.28 3 4.42.49-.95 4.27 1.83 4.02-4.23 1.28-2.59 3.53-3.28-3-4.42-.49.95-4.27-1.83-4.02 4.23-1.27 2.59-3.54z"/>
	<path fill="#379843" d="m64.42 110.55-1.31-.96-.48-1.58c-.25-.83-.85-1.51-1.64-1.86-.79-.36-1.7-.35-2.48.01l-1.5.69-1.58-.35c-.83-.18-1.7 0-2.4.49-.69.5-1.14 1.27-1.23 2.11l-.18 1.68-1.14 1.25c-.57.63-.85 1.47-.77 2.32s.53 1.62 1.22 2.12l.84.61.93-1.94 4.5 5.56 1.14-.52 1.58.35c.83.18 1.7 0 2.4-.49.69-.5 1.14-1.27 1.23-2.11l.18-1.68 1.14-1.25c.57-.63.85-1.47.77-2.32-.09-.86-.53-1.63-1.22-2.13z"/>
  </svg>
