<svg xmlns="http://www.w3.org/2000/svg" xml:space="preserve" viewBox="0 0 256 256">
	<path fill="#AE7539" d="M219.33 0H134l.14 133.69L0 134v85.33l220.13-1.53z"/>
	<path fill="#936331" d="M128.01 137.99c1.29-.07 2.55-.13 3.84-.19l2.49-.12a4.01 4.01 0 0 0 3.8-3.9c.05-2.05-.04-3.98-.14-5.78-1.38-25.6-1.99-45.27-1.99-63.78s.62-38.19 1.99-63.78l.02-.44h-8.01C128.62 25.74 128 45.55 128 64.21c0 18.66.62 38.47 2.01 64.21.03.48.05.96.07 1.46-.83.04-1.66.08-2.5.13-25.6 1.38-45.27 1.99-63.78 1.99s-38.19-.62-63.78-1.99H.01v8.01C25.55 139.39 45.24 140 63.8 140c18.66 0 38.46-.62 64.21-2.01z"/>
	<path fill="#936331" d="M63.79 178.67c18.52 0 38.19.62 63.78 1.99 13.12.71 24.16 1.17 34.59 1.17 4.34 0 8.57-.08 12.8-.25 2.12-.09 3.8-1.81 3.83-3.93.26-14.83.85-30.47 1.86-49.22 1.39-25.75 2.01-45.55 2.01-64.21 0-18.66-.62-38.47-2.01-64.21h-8.01l.02.42c1.38 25.6 1.99 45.27 1.99 63.78s-.62 38.19-1.99 63.78c-.93 17.26-1.51 31.91-1.8 45.71-12.88.36-26.16-.14-42.87-1.04-25.75-1.39-45.55-2.01-64.21-2.01-18.56 0-38.25.61-63.79 1.98v8.01H0c25.6-1.36 45.28-1.97 63.79-1.97z"/>
	<path fill="#936331" d="M128.01 223.33c25.6-1.38 45.27-1.99 63.79-1.99 8.31 0 17.28.15 28.23.47h.12c2.02 0 3.73-1.51 3.97-3.52 1.08-8.97 1.23-17.83 1.23-26.07 0-18.67-.62-38.47-2.01-64.22-1.38-25.6-1.99-45.27-1.99-63.78s.62-38.19 1.99-63.78l.01-.44h-8.01c-1.39 25.74-2.01 45.55-2.01 64.21 0 18.66.62 38.47 2.01 64.21 1.38 25.6 1.99 45.27 1.99 63.79 0 6.86-.1 14.15-.79 21.49-9.38-.25-17.32-.37-24.76-.37-18.67 0-38.47.62-64.22 2.01-25.6 1.38-45.27 1.99-63.78 1.99s-38.19-.62-63.78-1.99h-.01v8.01c25.54 1.37 45.23 1.98 63.79 1.98 18.68 0 38.48-.61 64.23-2z"/>
	<path fill="#BF9847" d="m204.66 0-9.16 8 7.5 16-12.5 16L203 56l-7.5 16L208 88l-7.5 16 7.5 16-12.5 16 7.5 16-12.5 16 12.5 16-5.25 17.5-13.75-6-16 12.5-16-7.5-16 7.5-16-12.5-16 7.5-16-12.5L72 203l-16-7.5L40 208l-16-7.5L8 208l-8-3.34V256h256V0z"/>
	<path fill="#AB8841" d="m9.7 211.62 14.3-6.7 14.3 6.7c1.36.64 2.97.46 4.16-.47l14.06-10.99 13.78 6.46c1.36.64 2.97.46 4.16-.47L88 195.58l13.54 10.58c1.19.93 2.8 1.11 4.16.47l13.78-6.46 14.06 10.99c1.19.93 2.8 1.11 4.16.47l14.3-6.7 14.3 6.7c.54.25 1.12.38 1.7.38.88 0 1.75-.29 2.46-.85l14.12-11.03 11.57 5.05c1.05.46 2.24.44 3.28-.04a3.986 3.986 0 0 0 2.15-2.48l5.25-17.5c.37-1.24.12-2.59-.68-3.61L195.58 168l10.58-13.54c.93-1.19 1.11-2.8.47-4.16l-6.46-13.78 10.99-14.06c.93-1.19 1.11-2.8.47-4.16l-6.7-14.3 6.7-14.3c.64-1.36.46-2.97-.47-4.16l-10.99-14.06 6.46-13.78c.64-1.36.46-2.97-.47-4.16L195.58 40l10.58-13.54c.93-1.19 1.11-2.8.47-4.16l-6.46-13.78L206.83 0h-10.15l-4.33 5.54a3.996 3.996 0 0 0-.47 4.16l6.46 13.78-10.99 14.06a3.994 3.994 0 0 0 0 4.92l10.99 14.06-6.46 13.78c-.64 1.36-.46 2.97.47 4.16l10.99 14.06-6.46 13.78a4.04 4.04 0 0 0 0 3.4l6.46 13.78-10.99 14.06a3.996 3.996 0 0 0-.47 4.16l6.46 13.78-10.99 14.06a4.009 4.009 0 0 0 0 4.93l11.23 14.37-3.36 11.2-9.62-4.2a3.994 3.994 0 0 0-4.06.51l-14.06 10.99-13.78-6.46c-1.07-.5-2.32-.5-3.39 0l-13.78 6.46-14.06-10.99a3.996 3.996 0 0 0-4.16-.47l-13.78 6.46-14.06-10.99a3.994 3.994 0 0 0-4.92 0l-14.06 10.99-13.78-6.46a3.993 3.993 0 0 0-4.16.47l-14.06 10.99-13.78-6.46a4.04 4.04 0 0 0-3.4 0l-13.78 6.46L0 196.67v10.15l5.54 4.33c1.19.93 2.79 1.11 4.16.47z"/>
	<path fill="#C79E48" d="M96.62 220.2c-.58-.42-1.34-.49-1.99-.2l-9.22 4.17c-.65.29-1.1.91-1.17 1.62s.24 1.41.82 1.82l8.22 5.9c.35.25.75.38 1.17.38.28 0 .56-.06.82-.18.65-.29 1.1-.91 1.17-1.62l1-10.07a2 2 0 0 0-.82-1.82z"/>
	<path fill="#B38F42" d="M250.32 92.04c-.79-.72-1.91-.97-2.93-.65l-14.27 4.5a3.027 3.027 0 0 0-2.03 2.21c-.23 1.05.11 2.14.9 2.86l11.03 10.11c.56.51 1.29.79 2.03.79.3 0 .61-.05.9-.14a3.027 3.027 0 0 0 2.03-2.21l3.24-14.61a3.01 3.01 0 0 0-.9-2.86z"/>
	<path fill="#C79E48" d="m238.21 50.3-3.54-9.48c-.25-.67-.84-1.15-1.54-1.27-.71-.12-1.42.15-1.87.7l-6.44 7.81c-.46.55-.58 1.3-.33 1.97.25.67.84 1.15 1.54 1.27l9.98 1.67a1.978 1.978 0 0 0 1.87-.7c.46-.55.58-1.31.33-1.97z"/>
	<path fill="#B38F42" d="m194.49 229.98-12.58-8.11a2.995 2.995 0 0 0-4.62 2.37l-.73 14.95c-.05 1.07.47 2.09 1.37 2.67a3.007 3.007 0 0 0 3 .15l13.31-6.84c.95-.49 1.57-1.45 1.62-2.52s-.47-2.09-1.37-2.67z"/>
	<path fill="#B38F42" d="M234.73 175.57a1 1 0 0 0-.55-.84c-.32-.16-.7-.14-1 .05l-4.54 2.96a1 1 0 0 0 .1 1.73l4.84 2.45a1.004 1.004 0 0 0 1-.05c.3-.2.47-.54.45-.89l-.3-5.41z"/>
	<path fill="#B38F42" d="m46.26 236.47-3.46-4.18c-.23-.28-.59-.4-.94-.35a.99.99 0 0 0-.77.64l-1.89 5.08c-.12.33-.06.71.17.99.19.23.48.36.77.36.06 0 .11 0 .17-.01l5.35-.9c.35-.06.65-.3.77-.64s.05-.71-.17-.99z"/>
  </svg>
