<svg xmlns="http://www.w3.org/2000/svg" xml:space="preserve" viewBox="0 0 256 256">
	<path fill="#AE7539" d="M132 0h124v124H132z"/>
	<path fill="#936331" d="M192.21 116c-15.92 0-33.36.49-54.6 1.53-1.08-19.44-1.61-36.92-1.61-53.32 0-18.52.62-38.19 1.99-63.78l.03-.43h-8.01C128.62 25.74 128 45.55 128 64.21c0 17.66.6 36.55 1.85 57.75.13 2.19 1.99 3.9 4.2 3.76 22.92-1.17 41.41-1.72 58.17-1.72 18.53 0 38.2.62 63.79 1.99h.01v-8.01c-25.55-1.37-45.24-1.98-63.81-1.98z"/>
	<path fill="#936331" d="M255.99 75.34c-25.59 1.38-45.26 1.99-63.78 1.99-3.2 0-6.44-.03-9.66-.07.05-3.67.12-8.84.12-13.06 0-18.66-.62-38.47-2.01-64.21h-8.01l.02.42c1.38 25.6 1.99 45.27 1.99 63.78 0 6.21-.14 14.53-.18 16.93-.02 1.06.38 2.09 1.12 2.85s1.75 1.2 2.81 1.22c4.58.08 9.22.12 13.79.13 18.57 0 38.26-.61 63.79-1.98v-8z"/>
	<path fill="#936331" d="M221.95 31.19c.33-9.58.78-19.69 1.38-30.77l.02-.42h-8.01c-.68 12.69-1.18 24.12-1.52 34.94-.03 1.06.36 2.09 1.08 2.87.73.77 1.73 1.23 2.79 1.26 12.72.38 25.6.92 38.29 1.6v-8.01c-11.27-.61-22.7-1.1-34.03-1.47z"/>
	<path fill="#BF9847" d="m204.66 0-9.16 8 7.5 16-12.5 16 11 18.25L216 48l16 7.5 16-7.5 8 3.34V0z"/>
	<path fill="#AB8841" d="M250.46 44.85a3.996 3.996 0 0 0-4.16-.47l-14.3 6.7-14.3-6.7a4.01 4.01 0 0 0-4.01.36l-10.99 7.77-7.36-12.21 10.81-13.83c.93-1.19 1.11-2.8.47-4.16l-6.46-13.78L206.83 0h-10.15l-4.33 5.54a3.996 3.996 0 0 0-.47 4.16l6.46 13.78-10.99 14.06a3.998 3.998 0 0 0-.27 4.53l11 18.25a4.008 4.008 0 0 0 5.74 1.2l12.6-8.91 13.89 6.51c1.07.5 2.32.5 3.39 0l13.78-6.46 8.53 6.66V49.17l-5.55-4.32z"/>
	<path fill="#B38F42" d="m249.74 12.28-9.01-4.61c-.64-.32-1.4-.29-2 .1-.6.39-.95 1.07-.91 1.78l.51 10.11c.04.71.45 1.35 1.09 1.68.29.15.6.22.91.22.38 0 .76-.11 1.09-.32l8.5-5.5c.6-.39.95-1.07.91-1.78-.04-.71-.46-1.35-1.09-1.68z"/>
  </svg>
