<svg xmlns="http://www.w3.org/2000/svg" viewBox="0 0 256 256">
	<path fill="#bf9847" d="M0 0h256v256H0z"/>
	<path fill="#b38f42" stroke="#b38f42" stroke-linecap="square" stroke-linejoin="round" stroke-width="6" d="m52.054 80.218-13.886 5.58 2.11-14.815z"/>
	<path fill="#b38f42" stroke="#b38f42" stroke-linecap="square" stroke-linejoin="round" stroke-width="2" d="m113.457 156.231-4.017-3.643 5.163-1.658z"/>
	<path fill="#b38f42" stroke="#b38f42" stroke-linecap="square" stroke-linejoin="round" stroke-width="4" d="m179.375 127.625-9.601-3.207 7.577-6.711z"/>
	<path fill="#b38f42" stroke="#b38f42" stroke-linecap="square" stroke-linejoin="round" stroke-width="6" d="m71.759 203.279 9.989-11.144 4.656 14.223z"/>
	<path fill="#b38f42" stroke="#b38f42" stroke-linecap="square" stroke-linejoin="round" stroke-width="4" d="m146.52 63.446-7.94 6.28-1.468-10.016z"/>
	<path fill="#b38f42" stroke="#b38f42" stroke-linecap="square" stroke-linejoin="round" stroke-width="4" d="m224.973 223.178-10.047 1.24 3.95-9.321z"/>
	<path fill="#b38f42" stroke="#b38f42" stroke-linecap="square" stroke-linejoin="round" stroke-width="2" d="m36.36 39.661 2.213-4.95 3.18 4.391z"/>
	<path fill="#b38f42" stroke="#b38f42" stroke-linecap="square" stroke-linejoin="round" stroke-width="2" d="m33.758 224.386-5.342-.937 3.482-4.157z"/>
	<path fill="#c79e48" stroke="#c79e48" stroke-linecap="square" stroke-linejoin="round" stroke-width="6" d="m83.157 129.709-12.535-8.176 13.347-6.768z"/>
	<path fill="#c79e48" stroke="#c79e48" stroke-linecap="square" stroke-linejoin="round" stroke-width="6" d="m206.707 34.009-11.59 9.468-2.404-14.771z"/>
	<path fill="#c79e48" stroke="#c79e48" stroke-linecap="square" stroke-linejoin="round" stroke-width="6" d="m200.342 183.341-6.974-13.24 14.954.58z"/>
	<path fill="#c79e48" stroke="#c79e48" stroke-linecap="square" stroke-linejoin="round" stroke-width="4" d="m81.346 43.46 1.682-9.982 7.803 6.447z"/>
	<path fill="#c79e48" stroke="#c79e48" stroke-linecap="square" stroke-linejoin="round" stroke-width="4" d="m42.785 173.221-9.514-3.456 7.75-6.512z"/>
	<path fill="#c79e48" stroke="#c79e48" stroke-linecap="square" stroke-linejoin="round" stroke-width="4" d="m220.394 116.301 9.578 3.276-7.626 6.657z"/>
	<path fill="#c79e48" stroke="#c79e48" stroke-linecap="square" stroke-linejoin="round" stroke-width="4" d="m139.591 213.662 9.84 2.372-6.973 7.336z"/>
	<path fill="#c79e48" stroke="#c79e48" stroke-linecap="square" stroke-linejoin="round" stroke-width="2" d="m218.359 63.16 4.547-2.956.286 5.416z"/>
	<path fill="#c79e48" stroke="#c79e48" stroke-linecap="square" stroke-linejoin="round" stroke-width="2" d="m135.697 117.807 3.502 4.14-5.337.963z"/>
	<path fill="#c79e48" stroke="#c79e48" stroke-linecap="square" stroke-linejoin="round" stroke-width="2" d="m31.022 114.327.44-5.405 4.46 3.083z"/>
	<path fill="#c79e48" stroke="#c79e48" stroke-linecap="square" stroke-linejoin="round" stroke-width="2" d="m90.788 237.548 2.443-4.842 2.972 4.536z"/>
	<path fill="#b38f42" stroke="#b38f42" stroke-linecap="square" stroke-linejoin="round" stroke-width="2" d="m157.729 27.919-5.326-1.02 3.546-4.103z"/>
  </svg>
