<svg xmlns="http://www.w3.org/2000/svg" xml:space="preserve" viewBox="0 0 256 256">
	<path fill="#AE7539" d="M0 0h124v256H0z"/>
	<path fill="#936331" d="M125.99 127.57c-1.38-25.59-1.99-45.26-1.99-63.78 0-18.52.62-38.2 1.99-63.78V0h-8.01C116.61 25.53 116 45.22 116 63.79c0 18.67.62 38.48 2.01 64.21 1.38 25.59 1.99 45.26 1.99 63.79s-.62 38.2-1.99 63.79l-.02.42H126c1.39-25.73 2.01-45.54 2.01-64.21-.01-18.67-.63-38.48-2.02-64.22z"/>
	<path fill="#936331" d="M81.33 191.79c0-18.53.62-38.2 1.99-63.79 1.39-25.74 2.01-45.54 2.01-64.21 0-18.57-.61-38.26-1.98-63.79h-8.01v.01c1.38 25.59 1.99 45.26 1.99 63.78 0 18.53-.62 38.2-1.99 63.78-1.39 25.74-2.01 45.54-2.01 64.22 0 18.67.62 38.48 2.01 64.21h8.01l-.02-.42c-1.38-25.59-2-45.26-2-63.79z"/>
	<path fill="#936331" d="M40.66 127.57c-1.38-25.59-1.99-45.26-1.99-63.78 0-18.52.62-38.2 1.99-63.78V0h-8.01c-1.37 25.53-1.98 45.22-1.98 63.79 0 18.67.62 38.48 2.01 64.21 1.38 25.59 1.99 45.26 1.99 63.79s-.62 38.2-1.99 63.79l-.03.42h8.01c1.39-25.73 2.01-45.54 2.01-64.21 0-18.67-.62-38.48-2.01-64.22z"/>
	<path fill="#BF9847" d="m53 232 12.5-16L53 200l7.5-16L48 168l7.5-16-7.5-16 12.5-16-7.5-16 12.5-16L53 72l7.5-16L48 40l7.5-16L48 8l3.34-8H0v256h51.34l9.16-8z"/>
	<path fill="#AB8841" d="M63.65 250.46c.93-1.19 1.11-2.8.47-4.16l-6.46-13.78 10.99-14.06a4.009 4.009 0 0 0 0-4.93l-10.99-14.06 6.46-13.78c.64-1.36.46-2.97-.47-4.16l-10.99-14.06 6.46-13.78c.5-1.08.5-2.32 0-3.39l-6.46-13.78 10.99-14.06c.93-1.19 1.11-2.8.47-4.16l-6.46-13.78 10.99-14.06a3.994 3.994 0 0 0 0-4.92L57.66 71.47l6.46-13.78c.64-1.36.46-2.97-.47-4.16L52.66 39.47l6.46-13.78c.5-1.08.5-2.32 0-3.4L52.66 8.53 59.33 0H49.17l-4.33 5.54a3.996 3.996 0 0 0-.47 4.16l6.7 14.3-6.7 14.3c-.64 1.36-.46 2.97.47 4.16l10.99 14.06-6.45 13.78c-.64 1.36-.46 2.97.47 4.16L60.42 88l-10.58 13.54a3.996 3.996 0 0 0-.47 4.16l6.46 13.78-10.99 14.06a3.996 3.996 0 0 0-.47 4.16l6.7 14.3-6.7 14.3c-.64 1.36-.46 2.97.47 4.16l10.99 14.06-6.46 13.78c-.64 1.36-.46 2.97.47 4.16L60.42 216l-10.58 13.54a3.996 3.996 0 0 0-.47 4.16l6.46 13.78-6.66 8.52h10.15l4.33-5.54z"/>
	<path fill="#B38F42" d="m23.55 90.72-6.52-13.47a3.018 3.018 0 0 0-2.48-1.69c-1.07-.08-2.1.42-2.7 1.31L3.44 89.25c-.6.89-.69 2.03-.22 2.99.47.96 1.41 1.61 2.48 1.69l14.93 1.09a3.006 3.006 0 0 0 2.7-1.3c.6-.89.68-2.03.22-3z"/>
	<path fill="#C79E48" d="M18.84 177.55c-.58-.42-1.34-.49-1.99-.2l-9.22 4.17c-.65.29-1.1.91-1.17 1.62-.07.71.24 1.41.82 1.82l8.22 5.9c.35.25.75.38 1.17.38.28 0 .56-.06.82-.18.65-.29 1.1-.91 1.17-1.62l1-10.07a1.99 1.99 0 0 0-.82-1.82z"/>
	<path fill="#B38F42" d="m15.55 212.42-2.89-4.59c-.19-.3-.52-.5-.88-.47-.36.01-.68.22-.85.53l-2.53 4.8c-.17.32-.15.7.04 1 .18.29.5.47.85.47h.04l5.42-.21c.36-.01.68-.22.85-.53.15-.31.14-.7-.05-1z"/>
	<path fill="#B38F42" d="M22.6 16.28a.989.989 0 0 0-.66-.75l-5.15-1.71a1.001 1.001 0 0 0-1.3 1.15l1.09 5.31a.989.989 0 0 0 .98.8c.24 0 .48-.09.66-.25l4.06-3.6c.27-.24.39-.6.32-.95z"/>
  </svg>
