<svg xmlns="http://www.w3.org/2000/svg" xml:space="preserve" viewBox="0 0 256 256">
	<path fill="#AE7539" d="M132 132h124v124H132z"/>
	<path fill="#936331" d="M191.79 128c-17.66 0-36.55.6-57.75 1.85-2.19.13-3.87 2-3.76 4.2 1.17 22.93 1.72 41.41 1.72 58.17 0 18.52-.62 38.19-1.99 63.79v.01h8.01c1.37-25.54 1.98-45.23 1.98-63.79 0-15.91-.49-33.35-1.53-54.6 19.44-1.08 36.92-1.61 53.32-1.61 18.52 0 38.19.62 63.79 1.99l.42.02v-8.01c-25.74-1.4-45.55-2.02-64.21-2.02z"/>
	<path fill="#936331" d="M255.58 172.67c-25.6 1.38-45.27 1.99-63.79 1.99-6.21 0-14.53-.14-16.93-.18-1.07-.05-2.09.38-2.85 1.12-.76.74-1.2 1.75-1.22 2.81-.09 5.54-.13 9.79-.13 13.79 0 18.56.61 38.25 1.98 63.79h8.01v-.01c-1.38-25.6-1.99-45.27-1.99-63.79 0-2.94.02-6.02.07-9.66 3.67.05 8.84.12 13.06.12 18.66 0 38.47-.62 64.21-2.01v-8.01l-.42.04z"/>
	<path fill="#936331" d="M221.06 213.82c-1.05-.02-2.09.36-2.87 1.09-.77.73-1.23 1.73-1.26 2.79-.36 12.25-.92 25.85-1.6 38.29v.01h8.01c.59-11.04 1.1-22.97 1.46-34.05 9.58.33 19.69.78 30.77 1.38l.42.02v-8.01c-12.68-.68-24.11-1.18-34.93-1.52z"/>
	<path fill="#BF9847" d="m232 203-16-12.5-18.25 11L208 216l-7.5 16 7.5 16-3.34 8H256v-51.34l-8-9.16z"/>
	<path fill="#AB8841" d="M250.46 192.35a3.996 3.996 0 0 0-4.16-.47l-13.78 6.46-14.06-10.99a3.998 3.998 0 0 0-4.53-.27l-18.25 11a4.008 4.008 0 0 0-1.2 5.74l8.91 12.6-6.51 13.89c-.5 1.08-.5 2.32 0 3.39l6.46 13.78-6.66 8.53h10.15l4.33-5.54c.93-1.19 1.11-2.8.47-4.16l-6.7-14.3 6.7-14.3c.61-1.3.47-2.83-.36-4.01l-7.77-10.99 12.21-7.36 13.83 10.81c1.19.93 2.8 1.11 4.16.47l13.78-6.46 8.53 6.66v-10.15l-5.55-4.33z"/>
	<path fill="#C79E48" d="M246.25 233.94c0-1.07-.58-2.06-1.5-2.6s-2.07-.53-3 0l-12.95 7.5c-.93.54-1.5 1.53-1.5 2.6s.58 2.06 1.5 2.6l12.97 7.46c.46.27.98.4 1.5.4s1.04-.13 1.5-.4c.93-.54 1.5-1.53 1.5-2.6l-.02-14.96z"/>
  </svg>
