<svg xmlns="http://www.w3.org/2000/svg" xml:space="preserve" viewBox="0 0 256 256">
	<path fill="#AE7539" d="M0 132h124v124H0z"/>
	<path fill="#936331" d="M126.15 134.04c-.13-2.19-2-3.85-4.2-3.76-22.9 1.18-41.38 1.72-58.16 1.72-18.52 0-38.19-.62-63.78-1.99H0v8.01c25.54 1.37 45.23 1.98 63.79 1.98 15.93 0 33.37-.49 54.6-1.53 1.08 19.44 1.61 36.92 1.61 53.32 0 18.53-.62 38.2-1.99 63.79l-.02.42H126c1.39-25.73 2.01-45.54 2.01-64.21-.01-17.66-.61-36.55-1.86-57.75z"/>
	<path fill="#936331" d="M81.33 191.79c0-6.24.14-14.53.18-16.93.02-1.06-.39-2.09-1.12-2.85-.74-.76-1.75-1.2-2.81-1.22-5.54-.09-9.79-.13-13.79-.13-18.56 0-38.25.61-63.79 1.98v8.01h.01c25.6-1.38 45.27-1.99 63.78-1.99 2.94 0 6.02.02 9.66.07-.05 3.66-.12 8.82-.12 13.06 0 18.67.62 38.48 2.01 64.21h8.01l-.02-.42c-1.38-25.59-2-45.26-2-63.79z"/>
	<path fill="#936331" d="M41.09 218.19a4.012 4.012 0 0 0-2.8-1.26c-12.25-.36-25.85-.92-38.29-1.6h-.01v8.01c11.04.59 22.97 1.1 34.05 1.46-.33 9.57-.78 19.67-1.38 30.77l-.01.43h8.01c.68-12.71 1.18-24.14 1.52-34.94.03-1.06-.36-2.1-1.09-2.87z"/>
	<path fill="#BF9847" d="m53 232 12.5-16-11-18.25L40 208l-16-7.5L8 208l-8-3.34V256h51.34l9.16-8z"/>
	<path fill="#AB8841" d="M63.65 250.46c.93-1.19 1.11-2.8.47-4.16l-6.46-13.78 10.99-14.06a3.998 3.998 0 0 0 .27-4.53l-11-18.25a4.008 4.008 0 0 0-5.74-1.2l-12.6 8.91-13.89-6.51a4.04 4.04 0 0 0-3.4 0l-13.78 6.46L0 196.67v10.15l5.54 4.33c1.19.93 2.8 1.11 4.16.47l14.3-6.7 14.3 6.7c1.3.61 2.83.47 4.01-.36l10.99-7.77 7.36 12.21-10.8 13.83a3.996 3.996 0 0 0-.47 4.16l6.46 13.78-6.68 8.53h10.15l4.33-5.54z"/>
	<path fill="#C79E48" d="m24.1 235.99-3.23-4.35a.998.998 0 0 0-1.72.2L17 236.81c-.14.33-.1.71.12.99.19.25.49.4.8.4.04 0 .08 0 .12-.01l5.39-.62c.35-.04.66-.27.8-.6a.99.99 0 0 0-.13-.98z"/>
  </svg>
