<svg version="1.1" id="Layer_1" xmlns="http://www.w3.org/2000/svg" xmlns:xlink="http://www.w3.org/1999/xlink" x="0px" y="0px"
	 width="256px" height="256px" viewBox="0 0 256 256">
<path fill="#66869E" d="M0,0h256v256H0V0z"/>
<path fill="#88B0C9" d="M0,183.33c19.56-11.67,33.3-26.4,49.14-59.31C67.55,85.77,101.4,62.07,128.37,53
	c44.44-14.95,65.93-26.33,79.26-53H75.71C49.95,17.38,18.43,15.92,0,42.96V183.33z M207.63,256c13.33-26.67,8.59-29.22,14.82-43.39
	c6.24-14.17,13.98-17.61,33.54-29.28V42.96c-18.43,27.04-30.5,54.18-48.19,89.07c-12.76,25.17-50.11,62.18-68.01,75.37
	c-25.51,18.79-38.34,31.22-64.09,48.6"/>
<path fill="#98C8E3" d="M173.94,232.98c-0.27-1.93,8.68-17.07,10.15-17.89c1.48-0.83,13.13,10.23,13.61,11.97
	c0.48,1.74-4.09,16.37-6,16.58C189.79,243.83,174.21,234.9,173.94,232.98L173.94,232.98z"/>
<path fill="#98C8E3" d="M52.16,59.56c0.77,1.26-1.48,13.62-2.02,14.9c-0.54,1.28-5.08,12.47-6.37,13.44
	c-1.29,0.96-16.3-4.39-17.84-4.76c-1.54-0.37-8.06-7.97-7.94-9.64c0.12-1.67,2.55-17.34,3.45-18.55c0.9-1.21,11.78-3.75,13.31-3.33
	C36.28,52.04,51.39,58.3,52.16,59.56L52.16,59.56z"/>
<path fill="#779CB0" d="M176.28,78.52c0.75,1.51-2.77,15.88-3.9,16.92c-1.14,1.04-14.31,10.42-16.05,10.49
	c-1.74,0.06-17.53-5.02-18.35-6.49c-0.82-1.47,2.43-16.78,2.43-18.5c0-1.72,7.22-12.21,8.82-13.03c1.6-0.82,12.42-3.65,14.12-3.36
	C165.06,64.83,175.53,77.01,176.28,78.52z"/>
<path fill="#5A758C" d="M103.8,12.98c1.15-0.8,10.85-1.88,12.09-1.28c1.24,0.6,5.89,7.93,6.64,8.97c0.75,1.04,3.8,15.32,2.74,16.32
	c-1.06,0.99-11.53,3.06-12.77,2.92c-1.24-0.14-13.87-3.94-14.78-4.9c-0.91-0.97,0.26-11.15-0.01-12.53
	C97.45,21.1,102.65,13.79,103.8,12.98z"/>
<path fill="#5A758C" d="M102.07,205c-1.81,3.13-30.96-7.16-32.48-10.2c-1.52-3.03,19.07-25.78,22.63-24.57
	C95.78,171.44,103.88,201.87,102.07,205L102.07,205z"/>
</svg>
