<svg version="1.1" xmlns="http://www.w3.org/2000/svg" xmlns:xlink="http://www.w3.org/1999/xlink" x="0px" y="0px"
	 width="256px" height="256px" viewBox="0 0 256 256">
<path fill="#66869E" d="M0,0h256v256H0V0z"/>
<path fill="#88B0C9" d="M0,183.33c19.56-11.67,50.73-31.1,69.03-62.71c18.41-31.8,66.32-59.25,89.3-68.49
	C183.79,41.89,194.3,26.67,207.63,0H75.71C49.95,17.38,18.43,15.92,0,42.96V183.33z M207.63,256c13.33-26.67,11.46-29.53,18.1-42.81
	c6.08-12.16,10.71-18.19,30.27-29.86V42.96c-18.43,27.04-15.19,41.35-25.17,72.95c-13.9,43.99-53.71,59.36-75.07,70.8
	c-27.93,14.96-54.29,51.91-80.05,69.29"/>
<path fill="#5A758C" d="M49.24,119.09c-2,2.43-21.49,3-23.75,1.05c-2.26-1.95-9.16-21.46-6.99-23.41
	c2.17-1.95,28.65-12.65,30.76-10.41C51.37,88.57,51.24,116.66,49.24,119.09L49.24,119.09z"/>
<path fill="#779CB0" d="M111.11,35.15c-0.4-1.41-0.57-13.64,0.04-15.18c0.6-1.55,10.65-13.12,12.3-12.83
	c1.66,0.29,10.85,7.52,11.75,8.66c0.9,1.14,11.81,12.54,11.47,14.1c-0.34,1.55-11.53,13.93-12.95,14.46
	c-1.42,0.53-14.72-3.73-16.13-3.94C116.19,40.2,111.51,36.56,111.11,35.15z"/>
<path fill="#98C8E3" d="M121.78,105.19c-0.2-1.42,10.5-13.39,11.91-13.86c1.41-0.47,13.84-6.9,15.06-6.1
	c1.22,0.8,11.31,13.94,12.18,15.22c0.87,1.28-6.7,14.74-7.71,15.89s-6.19,9.08-7.65,9.22c-1.46,0.14-15.81-10.68-17.16-11.44
	C127.07,113.36,121.98,106.61,121.78,105.19L121.78,105.19z"/>
<path fill="#779CB0" d="M81.88,208.86c0.72,1.18-1.39,12.78-1.89,13.98c-0.5,1.2-4.76,11.7-5.98,12.61
	c-1.21,0.9-15.29-4.12-16.74-4.46c-1.45-0.34-7.56-7.48-7.45-9.04c0.12-1.57,2.39-16.27,3.24-17.4c0.84-1.14,11.05-3.52,12.49-3.12
	C66.98,201.81,81.15,207.68,81.88,208.86L81.88,208.86z"/>
</svg>
