<svg version="1.1" xmlns="http://www.w3.org/2000/svg" xmlns:xlink="http://www.w3.org/1999/xlink" x="0px" y="0px"
	 width="256px" height="256px" viewBox="0 0 256 256">
<path fill="#66869E" d="M0,0h256v256H0V0z"/>
<path fill="#88B0C9" d="M0,183.33c19.56-11.67,27.84-43.41,57.19-65.15c27.73-20.55,57.54-36.37,84.03-48.11
	C171.73,56.56,194.3,26.67,207.63,0H75.71C49.95,17.38,18.43,15.92,0,42.96V183.33L0,183.33z M207.63,256
	c13.33-26.67,13.94-33.87,19.6-46.1s9.21-14.9,28.77-26.57V42.96c-18.43,27.04-23.58,56.7-50.89,78.44s-62.2,56.9-73.58,78.48
	c-14.78,28.02-30.06,38.74-55.82,56.12"/>
<path fill="#779CB0" d="M88.77,135.8c-2.11-2.05,11.28-28.4,14.23-29.51s20.77,20.09,20.14,23.2
	C122.5,132.61,90.89,137.85,88.77,135.8z"/>
<path fill="#98C8E3" d="M148.4,36.67c-1.15-0.83-8.46-11.74-8.24-13.23c0.23-1.49,9-11.06,10.3-11.85
	c1.3-0.78,13.95-1.71,15.15-0.86c1.19,0.85,5.43,11.55,5.26,12.97s-6.12,14.09-7.33,14.82C162.33,39.26,149.55,37.5,148.4,36.67
	L148.4,36.67z M182.67,236.5c-1.61-0.09-11.84-9.77-12.17-11.2s-1.89-16.76-1.12-18.23s12.41-12.14,14.01-12.13
	c1.6,0.01,12.75,9.91,14.17,10.73c1.42,0.81,6.71,11.73,6.63,13.44c-0.07,1.71-2.82,12-3.87,13.28
	C199.29,233.66,184.28,236.59,182.67,236.5L182.67,236.5z"/>
<path fill="#779CB0" d="M67.82,64.15c-2.19,2.4-30.21,2.05-32.71-0.21c-2.5-2.27-6.58-29.7-3.94-31.7s35.53-2.34,37.44,0.21
	S70.01,61.75,67.82,64.15z"/>
<path fill="#5A758C" d="M173.45,79c0.68-1.08,6.57-9.4,7.67-9.78c1.09-0.38,13.56-0.26,14.61,0.51s3.08,10.06,3.39,11.24
	s-0.81,11.46-1.58,12.47s-10.86,4.2-12.01,4.02s-11.13-4.98-11.88-5.94S172.77,80.07,173.45,79z M50.46,226.56
	c-1.22-1.6-8.04-17.35-7.64-19.32s14.31-15.03,16.18-15.8s16.99,4.62,18.51,5.92s4.95,19.66,4.48,21.52
	c-0.47,1.86-10.35,11.44-12.22,11.84C67.9,231.11,51.68,228.16,50.46,226.56L50.46,226.56z"/>
</svg>
