<svg version="1.1" xmlns="http://www.w3.org/2000/svg" xmlns:xlink="http://www.w3.org/1999/xlink" viewBox="0 0 256 256">
<rect fill="#4C5B53" width="256" height="256"/>
<path fill="#4F6058" d="M26.5,26.5h203v203h-203V26.5z"/>
<path fill="#475750" d="M0,0l0,64l26.5,0L64,26.5L64,0C64,0,0,0,0,0z"/>
<path fill="#475750" d="M0,192l0,64l64,0l0-26.5L26.5,192L0,192L0,192z"/>
<path fill="#475750" d="M229.5,192L192,229.5l0,26.5l64,0l0-64L229.5,192L229.5,192z"/>
<path fill="#475750" d="M192,0l0,26.5L229.5,64l26.5,0l0-64L192,0L192,0z"/>
<path fill="#56675F" d="M180,128l-52,52l-52-52l52-52L180,128z"/>
<path fill-opacity="0.1016" d="M73.8,171.4l-8.2,10.7l-13.4-1.7L46.9,168l8.2-10.7l13.4,1.7L73.8,171.4z"/>
<path fill-opacity="0.1016" d="M87.9,207.2L82,216l-10.2-2.9l-0.4-10.6l10-3.7L87.9,207.2z"/>
<path fill-opacity="0.1016" d="M208.3,171.2l5.7,10.9l-8.6,8.8l-11-5.5l1.8-12.2L208.3,171.2z"/>
<path fill-opacity="0.1016" d="M191.2,48.3l3.9,11.7l-8.2,9.3l-12.1-2.5l-3.9-11.7l8.2-9.2L191.2,48.3z"/>
<path fill-opacity="0.1016" d="M216.9,136.4l2.3,11.5l-10.2,5.7l-8.6-7.9l4.9-10.7L216.9,136.4z"/>
<path fill-opacity="0.1016" d="M99,44.4l3.7,8.7l-7.1,6.2l-8.1-4.9l2.1-9.2L99,44.4z"/>
<path fill-opacity="0.1016" d="M130.1,49.4l-10.8,3.3l-6.5-9.2l6.8-9l10.7,3.7L130.1,49.4z"/>
<path fill-opacity="0.1016" d="M59.1,77.6l-1.4,10.9l-10.8,2.1l-5.3-9.6l7.5-8L59.1,77.6z"/>
<path fill-opacity="0.1016" d="M176.4,207.2l-7.8,7.2l-9.2-5.2l2.1-10.4l10.5-1.2L176.4,207.2z"/>
</svg>
