<svg version="1.1" xmlns="http://www.w3.org/2000/svg" xmlns:xlink="http://www.w3.org/1999/xlink" viewBox="0 0 256 256">
<rect fill="#4C5B53" width="256" height="256"/>
<path fill="#4F6058" d="M26.5,26.5h203v203h-203V26.5z"/>
<path fill="#475750" d="M0,0l0,64l26.5,0L64,26.5L64,0C64,0,0,0,0,0z"/>
<path fill="#475750" d="M0,192l0,64l64,0l0-26.5L26.5,192L0,192L0,192z"/>
<path fill="#475750" d="M229.5,192L192,229.5l0,26.5l64,0l0-64L229.5,192L229.5,192z"/>
<path fill="#475750" d="M192,0l0,26.5L229.5,64l26.5,0l0-64L192,0L192,0z"/>
<path fill="#56675F" d="M180,128l-52,52l-52-52l52-52L180,128z"/>
<path fill-opacity="0.1016" d="M89,204.4L81.3,216l-13.4-3.7l-0.6-13.9l13-4.9L89,204.4z"/>
<path fill-opacity="0.1016" d="M119.6,194.7l4.6,8.9l-7,7.2l-9-4.4l1.5-9.9L119.6,194.7z"/>
<path fill-opacity="0.1016" d="M175,60l9.8,9.5l-3.3,13.3l-13.2,3.8l-9.8-9.5l3.3-13.3L175,60z"/>
<path fill-opacity="0.1016" d="M221.5,136.3l2.1,10.4l-9.3,5.2l-7.8-7.2l4.4-9.7L221.5,136.3z"/>
<path fill-opacity="0.1016" d="M101.3,50.6l2.4,10.6l-9.4,5.5l-8.2-7.2l4.3-10L101.3,50.6z"/>
<path fill-opacity="0.1016" d="M65.2,171.4l-0.6,11.2l-10.8,2.8l-6-9.4l7.1-8.6L65.2,171.4z"/>
<path fill-opacity="0.1016" d="M64.4,86.6L52,90.3l-7.4-10.6l7.8-10.3l12.2,4.2L64.4,86.6z"/>
<path fill-opacity="0.1016" d="M216.3,72.5l-3.8,10.4l-11-0.4l-3-10.6l9.2-6.1L216.3,72.5z"/>
<path fill-opacity="0.1016" d="M196.3,198.8l-8.2,7.6l-9.7-5.4l2.2-10.9l11.1-1.3L196.3,198.8z"/>
</svg>
